<svg width="737" height="365" viewBox="0 0 737 365" fill="none" xmlns="http://www.w3.org/2000/svg">
<g id="Process/Step">
<rect x="-4376" y="-1790.49" width="10049" height="5201.32" rx="19.5" stroke="#8A38F5" stroke-dasharray="10 5"/>
<g id="Step=Design, Layout=Compact">
<g id="double-diamond_design_compact">
<g id="1st diamond">
<path id="Vector" d="M182.325 364.151C180.182 364.151 178.033 363.333 176.398 361.693L2.95673 188.256C-0.318909 184.98 -0.318909 179.671 2.95673 176.395L176.393 2.95806C178.028 1.32285 180.177 0.5 182.32 0.5" stroke="#C5FA00" stroke-miterlimit="10"/>
<path id="line 1" d="M182.325 0.5V364.151" stroke="#C5FA00" stroke-miterlimit="10" stroke-dasharray="3 6"/>
<g id="Vector_2">
<path d="M182.325 0.5C184.469 0.5 186.618 1.31759 188.253 2.95802L361.694 176.398C364.969 179.673 364.969 184.983 361.694 188.258L188.253 361.693C186.618 363.328 184.469 364.151 182.325 364.151" fill="#C5FA00"/>
<path d="M182.325 0.5C184.469 0.5 186.618 1.31759 188.253 2.95802L361.694 176.398C364.969 179.673 364.969 184.983 361.694 188.258L188.253 361.693C186.618 363.328 184.469 364.151 182.325 364.151" stroke="#C5FA00" stroke-miterlimit="10"/>
</g>
<path id="Define" d="M69.156 190.009V173.209H74.796C76.748 173.209 78.364 173.553 79.644 174.241C80.924 174.929 81.868 175.905 82.476 177.169C83.1 178.417 83.412 179.905 83.412 181.633C83.412 183.329 83.1 184.809 82.476 186.073C81.868 187.321 80.924 188.289 79.644 188.977C78.38 189.665 76.764 190.009 74.796 190.009H69.156ZM72.036 187.561H74.652C76.108 187.561 77.26 187.329 78.108 186.865C78.956 186.385 79.556 185.705 79.908 184.825C80.276 183.929 80.46 182.865 80.46 181.633C80.46 180.385 80.276 179.321 79.908 178.441C79.556 177.545 78.956 176.857 78.108 176.377C77.26 175.881 76.108 175.633 74.652 175.633H72.036V187.561ZM91.7882 190.297C90.5882 190.297 89.5242 190.041 88.5962 189.529C87.6842 189.001 86.9642 188.281 86.4362 187.369C85.9242 186.441 85.6682 185.361 85.6682 184.129C85.6682 182.881 85.9242 181.785 86.4362 180.841C86.9482 179.897 87.6602 179.161 88.5722 178.633C89.5002 178.089 90.5722 177.817 91.7882 177.817C92.9722 177.817 94.0042 178.081 94.8842 178.609C95.7642 179.121 96.4522 179.809 96.9482 180.673C97.4442 181.537 97.6922 182.513 97.6922 183.601C97.6922 183.761 97.6842 183.937 97.6682 184.129C97.6682 184.321 97.6602 184.529 97.6442 184.753H87.7322V182.905H94.7882C94.7402 182.057 94.4362 181.393 93.8762 180.913C93.3162 180.417 92.6202 180.169 91.7882 180.169C91.1962 180.169 90.6442 180.305 90.1322 180.577C89.6362 180.833 89.2362 181.225 88.9322 181.753C88.6442 182.265 88.5002 182.921 88.5002 183.721V184.417C88.5002 185.153 88.6442 185.785 88.9322 186.313C89.2202 186.825 89.6122 187.225 90.1082 187.513C90.6042 187.785 91.1562 187.921 91.7642 187.921C92.4202 187.921 92.9722 187.777 93.4202 187.489C93.8682 187.185 94.2042 186.785 94.4282 186.289H97.3322C97.1242 187.057 96.7562 187.745 96.2282 188.353C95.7162 188.945 95.0842 189.417 94.3322 189.769C93.5802 190.121 92.7322 190.297 91.7882 190.297ZM100.855 190.009V176.593C100.855 175.665 101.015 174.921 101.335 174.361C101.655 173.785 102.111 173.369 102.703 173.113C103.295 172.857 103.991 172.729 104.791 172.729H106.087V175.177H105.247C104.703 175.177 104.311 175.289 104.071 175.513C103.847 175.721 103.735 176.089 103.735 176.617V190.009H100.855ZM99.1988 180.505V178.105H106.375V180.505H99.1988ZM108.954 190.009V178.105H111.834V190.009H108.954ZM110.418 176.113C109.874 176.113 109.434 175.953 109.098 175.633C108.762 175.297 108.594 174.889 108.594 174.409C108.594 173.913 108.762 173.513 109.098 173.209C109.434 172.889 109.874 172.729 110.418 172.729C110.946 172.729 111.378 172.889 111.714 173.209C112.066 173.513 112.242 173.913 112.242 174.409C112.242 174.889 112.066 175.297 111.714 175.633C111.378 175.953 110.946 176.113 110.418 176.113ZM115.115 190.009V178.105H117.659L117.875 180.145C118.259 179.441 118.795 178.881 119.483 178.465C120.187 178.033 121.003 177.817 121.931 177.817C122.923 177.817 123.763 178.025 124.451 178.441C125.139 178.841 125.667 179.449 126.035 180.265C126.403 181.065 126.587 182.057 126.587 183.241V190.009H123.731V183.529C123.731 182.473 123.507 181.665 123.059 181.105C122.627 180.529 121.955 180.241 121.043 180.241C120.451 180.241 119.923 180.385 119.459 180.673C119.011 180.961 118.651 181.377 118.379 181.921C118.123 182.449 117.995 183.097 117.995 183.865V190.009H115.115ZM135.241 190.297C134.041 190.297 132.977 190.041 132.049 189.529C131.137 189.001 130.417 188.281 129.889 187.369C129.377 186.441 129.121 185.361 129.121 184.129C129.121 182.881 129.377 181.785 129.889 180.841C130.401 179.897 131.113 179.161 132.025 178.633C132.953 178.089 134.025 177.817 135.241 177.817C136.425 177.817 137.457 178.081 138.337 178.609C139.217 179.121 139.905 179.809 140.401 180.673C140.897 181.537 141.145 182.513 141.145 183.601C141.145 183.761 141.137 183.937 141.121 184.129C141.121 184.321 141.113 184.529 141.097 184.753H131.185V182.905H138.241C138.193 182.057 137.889 181.393 137.329 180.913C136.769 180.417 136.073 180.169 135.241 180.169C134.649 180.169 134.097 180.305 133.585 180.577C133.089 180.833 132.689 181.225 132.385 181.753C132.097 182.265 131.953 182.921 131.953 183.721V184.417C131.953 185.153 132.097 185.785 132.385 186.313C132.673 186.825 133.065 187.225 133.561 187.513C134.057 187.785 134.609 187.921 135.217 187.921C135.873 187.921 136.425 187.777 136.873 187.489C137.321 187.185 137.657 186.785 137.881 186.289H140.785C140.577 187.057 140.209 187.745 139.681 188.353C139.169 188.945 138.537 189.417 137.785 189.769C137.033 190.121 136.185 190.297 135.241 190.297Z" fill="white"/>
<path id="Design" d="M224.156 190.009V173.209H229.796C231.748 173.209 233.364 173.553 234.644 174.241C235.924 174.929 236.868 175.905 237.476 177.169C238.1 178.417 238.412 179.905 238.412 181.633C238.412 183.329 238.1 184.809 237.476 186.073C236.868 187.321 235.924 188.289 234.644 188.977C233.38 189.665 231.764 190.009 229.796 190.009H224.156ZM227.036 187.561H229.652C231.108 187.561 232.26 187.329 233.108 186.865C233.956 186.385 234.556 185.705 234.908 184.825C235.276 183.929 235.46 182.865 235.46 181.633C235.46 180.385 235.276 179.321 234.908 178.441C234.556 177.545 233.956 176.857 233.108 176.377C232.26 175.881 231.108 175.633 229.652 175.633H227.036V187.561ZM246.788 190.297C245.588 190.297 244.524 190.041 243.596 189.529C242.684 189.001 241.964 188.281 241.436 187.369C240.924 186.441 240.668 185.361 240.668 184.129C240.668 182.881 240.924 181.785 241.436 180.841C241.948 179.897 242.66 179.161 243.572 178.633C244.5 178.089 245.572 177.817 246.788 177.817C247.972 177.817 249.004 178.081 249.884 178.609C250.764 179.121 251.452 179.809 251.948 180.673C252.444 181.537 252.692 182.513 252.692 183.601C252.692 183.761 252.684 183.937 252.668 184.129C252.668 184.321 252.66 184.529 252.644 184.753H242.732V182.905H249.788C249.74 182.057 249.436 181.393 248.876 180.913C248.316 180.417 247.62 180.169 246.788 180.169C246.196 180.169 245.644 180.305 245.132 180.577C244.636 180.833 244.236 181.225 243.932 181.753C243.644 182.265 243.5 182.921 243.5 183.721V184.417C243.5 185.153 243.644 185.785 243.932 186.313C244.22 186.825 244.612 187.225 245.108 187.513C245.604 187.785 246.156 187.921 246.764 187.921C247.42 187.921 247.972 187.777 248.42 187.489C248.868 187.185 249.204 186.785 249.428 186.289H252.332C252.124 187.057 251.756 187.745 251.228 188.353C250.716 188.945 250.084 189.417 249.332 189.769C248.58 190.121 247.732 190.297 246.788 190.297ZM260.151 190.297C259.127 190.297 258.215 190.129 257.415 189.793C256.615 189.441 255.975 188.961 255.495 188.353C255.031 187.745 254.751 187.041 254.655 186.241H257.535C257.631 186.577 257.783 186.881 257.991 187.153C258.215 187.425 258.503 187.641 258.855 187.801C259.223 187.961 259.647 188.041 260.127 188.041C260.591 188.041 260.975 187.977 261.279 187.849C261.583 187.705 261.799 187.529 261.927 187.321C262.071 187.097 262.143 186.865 262.143 186.625C262.143 186.241 262.039 185.953 261.831 185.761C261.639 185.569 261.343 185.417 260.943 185.305C260.543 185.177 260.071 185.057 259.527 184.945C259.031 184.833 258.519 184.697 257.991 184.537C257.463 184.377 256.983 184.177 256.551 183.937C256.119 183.681 255.767 183.361 255.495 182.977C255.239 182.577 255.111 182.097 255.111 181.537C255.111 180.833 255.295 180.201 255.663 179.641C256.031 179.065 256.567 178.617 257.271 178.297C257.975 177.977 258.823 177.817 259.815 177.817C261.191 177.817 262.295 178.145 263.127 178.801C263.975 179.441 264.471 180.345 264.615 181.513H261.879C261.799 181.065 261.575 180.713 261.207 180.457C260.855 180.201 260.383 180.073 259.791 180.073C259.183 180.073 258.719 180.193 258.399 180.433C258.079 180.657 257.919 180.953 257.919 181.321C257.919 181.561 258.023 181.777 258.231 181.969C258.455 182.161 258.759 182.321 259.143 182.449C259.527 182.577 259.975 182.705 260.487 182.833C261.319 183.009 262.079 183.217 262.767 183.457C263.455 183.697 264.007 184.041 264.423 184.489C264.839 184.937 265.047 185.585 265.047 186.433C265.063 187.185 264.871 187.857 264.471 188.449C264.071 189.025 263.503 189.481 262.767 189.817C262.031 190.137 261.159 190.297 260.151 190.297ZM267.892 190.009V178.105H270.772V190.009H267.892ZM269.355 176.113C268.812 176.113 268.372 175.953 268.036 175.633C267.7 175.297 267.532 174.889 267.532 174.409C267.532 173.913 267.7 173.513 268.036 173.209C268.372 172.889 268.812 172.729 269.355 172.729C269.884 172.729 270.316 172.889 270.652 173.209C271.004 173.513 271.18 173.913 271.18 174.409C271.18 174.889 271.004 175.297 270.652 175.633C270.316 175.953 269.884 176.113 269.355 176.113ZM279.117 195.577C277.997 195.577 277.013 195.433 276.165 195.145C275.317 194.873 274.653 194.449 274.173 193.873C273.709 193.313 273.477 192.609 273.477 191.761C273.477 191.281 273.597 190.801 273.837 190.321C274.093 189.857 274.469 189.425 274.965 189.025C275.477 188.625 276.125 188.273 276.909 187.969L278.133 189.337C277.397 189.609 276.877 189.937 276.573 190.321C276.269 190.705 276.117 191.097 276.117 191.497C276.117 191.897 276.245 192.233 276.501 192.505C276.773 192.793 277.133 193.009 277.581 193.153C278.045 193.297 278.557 193.369 279.117 193.369C279.661 193.369 280.133 193.289 280.533 193.129C280.949 192.985 281.269 192.777 281.493 192.505C281.717 192.233 281.829 191.905 281.829 191.521C281.829 191.073 281.661 190.697 281.325 190.393C281.005 190.089 280.365 189.905 279.405 189.841C278.557 189.777 277.813 189.689 277.173 189.577C276.549 189.465 276.005 189.329 275.541 189.169C275.093 188.993 274.709 188.809 274.389 188.617C274.085 188.409 273.821 188.201 273.597 187.993V187.441L276.093 184.801L278.205 185.497L275.421 188.257L276.165 186.913C276.341 187.025 276.509 187.129 276.669 187.225C276.829 187.305 277.037 187.385 277.293 187.465C277.565 187.529 277.909 187.593 278.325 187.657C278.757 187.721 279.309 187.777 279.981 187.825C281.037 187.921 281.901 188.121 282.573 188.425C283.245 188.729 283.733 189.137 284.037 189.649C284.357 190.145 284.517 190.745 284.517 191.449C284.517 192.153 284.317 192.817 283.917 193.441C283.533 194.065 282.941 194.577 282.141 194.977C281.357 195.377 280.349 195.577 279.117 195.577ZM279.117 186.433C278.109 186.433 277.245 186.241 276.525 185.857C275.805 185.457 275.253 184.937 274.869 184.297C274.485 183.641 274.293 182.913 274.293 182.113C274.293 181.313 274.485 180.593 274.869 179.953C275.253 179.313 275.805 178.801 276.525 178.417C277.245 178.017 278.109 177.817 279.117 177.817C280.125 177.817 280.989 178.017 281.709 178.417C282.429 178.801 282.981 179.313 283.365 179.953C283.749 180.593 283.941 181.313 283.941 182.113C283.941 182.913 283.749 183.641 283.365 184.297C282.981 184.937 282.429 185.457 281.709 185.857C280.989 186.241 280.125 186.433 279.117 186.433ZM279.117 184.201C279.789 184.201 280.333 184.025 280.749 183.673C281.181 183.305 281.397 182.793 281.397 182.137C281.397 181.481 281.181 180.977 280.749 180.625C280.333 180.257 279.789 180.073 279.117 180.073C278.429 180.073 277.869 180.257 277.437 180.625C277.021 180.977 276.813 181.481 276.813 182.137C276.813 182.793 277.021 183.305 277.437 183.673C277.869 184.025 278.429 184.201 279.117 184.201ZM281.061 180.217L280.509 178.105H285.477V179.905L281.061 180.217ZM288.045 190.009V178.105H290.589L290.805 180.145C291.189 179.441 291.725 178.881 292.413 178.465C293.117 178.033 293.933 177.817 294.861 177.817C295.853 177.817 296.693 178.025 297.381 178.441C298.069 178.841 298.597 179.449 298.965 180.265C299.333 181.065 299.517 182.057 299.517 183.241V190.009H296.661V183.529C296.661 182.473 296.437 181.665 295.989 181.105C295.557 180.529 294.885 180.241 293.973 180.241C293.381 180.241 292.853 180.385 292.389 180.673C291.941 180.961 291.581 181.377 291.309 181.921C291.053 182.449 290.925 183.097 290.925 183.865V190.009H288.045Z" fill="#303030"/>
</g>
<g id="2nd diamond">
<path id="Vector_3" d="M553.976 364.151C551.832 364.151 549.683 363.333 548.048 361.693L374.607 188.256C371.331 184.98 371.331 179.671 374.607 176.395L548.043 2.95806C549.678 1.32285 551.827 0.5 553.971 0.5" stroke="white" stroke-miterlimit="10"/>
<path id="line 1_2" d="M553.976 0.5V364.151" stroke="white" stroke-miterlimit="10" stroke-dasharray="3 6"/>
<path id="Vector_4" d="M553.976 0.5C556.12 0.5 558.268 1.31759 559.904 2.95802L733.345 176.398C736.62 179.673 736.62 184.983 733.345 188.258L559.904 361.693C558.268 363.328 556.12 364.151 553.976 364.151" stroke="white" stroke-miterlimit="10"/>
<path id="Develop" d="M422.204 190.132V173.332H427.628C429.58 173.332 431.188 173.676 432.452 174.364C433.732 175.052 434.676 176.028 435.284 177.292C435.908 178.54 436.22 180.028 436.22 181.756C436.22 183.452 435.908 184.932 435.284 186.196C434.676 187.444 433.732 188.412 432.452 189.1C431.188 189.788 429.58 190.132 427.628 190.132H422.204ZM425.084 187.684H427.484C428.94 187.684 430.084 187.452 430.916 186.988C431.764 186.508 432.364 185.828 432.716 184.948C433.084 184.052 433.268 182.988 433.268 181.756C433.268 180.508 433.084 179.444 432.716 178.564C432.364 177.668 431.764 176.98 430.916 176.5C430.084 176.004 428.94 175.756 427.484 175.756H425.084V187.684ZM444.6 190.42C443.4 190.42 442.344 190.164 441.432 189.652C440.52 189.124 439.808 188.388 439.296 187.444C438.784 186.5 438.528 185.412 438.528 184.18C438.528 182.9 438.776 181.78 439.272 180.82C439.784 179.86 440.496 179.108 441.408 178.564C442.336 178.02 443.408 177.748 444.624 177.748C445.808 177.748 446.84 178.012 447.72 178.54C448.6 179.068 449.28 179.78 449.76 180.676C450.24 181.556 450.48 182.548 450.48 183.652C450.48 183.812 450.48 183.988 450.48 184.18C450.48 184.372 450.464 184.572 450.432 184.78H440.592V182.932H447.576C447.544 182.052 447.248 181.364 446.688 180.868C446.128 180.356 445.432 180.1 444.6 180.1C444.008 180.1 443.464 180.236 442.968 180.508C442.472 180.78 442.08 181.188 441.792 181.732C441.504 182.26 441.36 182.932 441.36 183.748V184.444C441.36 185.196 441.496 185.844 441.768 186.388C442.056 186.932 442.44 187.348 442.92 187.636C443.416 187.908 443.968 188.044 444.576 188.044C445.248 188.044 445.8 187.9 446.232 187.612C446.68 187.324 447.008 186.94 447.216 186.46H450.144C449.92 187.212 449.552 187.892 449.04 188.5C448.528 189.092 447.896 189.564 447.144 189.916C446.392 190.252 445.544 190.42 444.6 190.42ZM455.983 190.132L451.519 178.036H454.543L457.735 187.396L460.927 178.036H463.903L459.439 190.132H455.983ZM471.038 190.42C469.838 190.42 468.782 190.164 467.87 189.652C466.958 189.124 466.246 188.388 465.734 187.444C465.222 186.5 464.966 185.412 464.966 184.18C464.966 182.9 465.214 181.78 465.71 180.82C466.222 179.86 466.934 179.108 467.846 178.564C468.774 178.02 469.846 177.748 471.062 177.748C472.246 177.748 473.278 178.012 474.158 178.54C475.038 179.068 475.718 179.78 476.198 180.676C476.678 181.556 476.918 182.548 476.918 183.652C476.918 183.812 476.918 183.988 476.918 184.18C476.918 184.372 476.902 184.572 476.87 184.78H467.03V182.932H474.014C473.982 182.052 473.686 181.364 473.126 180.868C472.566 180.356 471.87 180.1 471.038 180.1C470.446 180.1 469.902 180.236 469.406 180.508C468.91 180.78 468.518 181.188 468.23 181.732C467.942 182.26 467.798 182.932 467.798 183.748V184.444C467.798 185.196 467.934 185.844 468.206 186.388C468.494 186.932 468.878 187.348 469.358 187.636C469.854 187.908 470.406 188.044 471.014 188.044C471.686 188.044 472.238 187.9 472.67 187.612C473.118 187.324 473.446 186.94 473.654 186.46H476.582C476.358 187.212 475.99 187.892 475.478 188.5C474.966 189.092 474.334 189.564 473.582 189.916C472.83 190.252 471.982 190.42 471.038 190.42ZM479.577 190.132V172.852H482.457V190.132H479.577ZM491.311 190.42C490.159 190.42 489.119 190.156 488.191 189.628C487.279 189.084 486.559 188.34 486.031 187.396C485.519 186.436 485.263 185.34 485.263 184.108C485.263 182.844 485.527 181.74 486.055 180.796C486.583 179.836 487.303 179.092 488.215 178.564C489.143 178.02 490.183 177.748 491.335 177.748C492.487 177.748 493.519 178.02 494.431 178.564C495.359 179.092 496.079 179.828 496.591 180.772C497.119 181.716 497.383 182.82 497.383 184.084C497.383 185.348 497.119 186.452 496.591 187.396C496.063 188.34 495.335 189.084 494.407 189.628C493.495 190.156 492.463 190.42 491.311 190.42ZM491.311 187.948C491.887 187.948 492.407 187.804 492.871 187.516C493.351 187.228 493.735 186.796 494.023 186.22C494.311 185.644 494.455 184.932 494.455 184.084C494.455 183.236 494.311 182.532 494.023 181.972C493.751 181.396 493.375 180.964 492.895 180.676C492.431 180.388 491.911 180.244 491.335 180.244C490.775 180.244 490.255 180.388 489.775 180.676C489.295 180.964 488.911 181.396 488.623 181.972C488.335 182.532 488.191 183.236 488.191 184.084C488.191 184.932 488.335 185.644 488.623 186.22C488.911 186.796 489.287 187.228 489.751 187.516C490.231 187.804 490.751 187.948 491.311 187.948ZM500.202 195.412V178.036H502.77L503.082 179.788C503.338 179.436 503.642 179.108 503.994 178.804C504.362 178.484 504.802 178.228 505.314 178.036C505.842 177.844 506.442 177.748 507.114 177.748C508.25 177.748 509.25 178.028 510.114 178.588C510.994 179.148 511.682 179.908 512.178 180.868C512.674 181.812 512.922 182.892 512.922 184.108C512.922 185.324 512.666 186.412 512.154 187.372C511.658 188.316 510.97 189.06 510.09 189.604C509.226 190.148 508.234 190.42 507.114 190.42C506.202 190.42 505.402 190.252 504.714 189.916C504.042 189.564 503.498 189.068 503.082 188.428V195.412H500.202ZM506.514 187.924C507.186 187.924 507.786 187.764 508.314 187.444C508.842 187.124 509.25 186.676 509.538 186.1C509.842 185.524 509.994 184.86 509.994 184.108C509.994 183.34 509.842 182.668 509.538 182.092C509.25 181.516 508.842 181.068 508.314 180.748C507.786 180.428 507.186 180.268 506.514 180.268C505.826 180.268 505.218 180.428 504.69 180.748C504.178 181.068 503.77 181.516 503.466 182.092C503.178 182.668 503.034 183.332 503.034 184.084C503.034 184.852 503.178 185.524 503.466 186.1C503.77 186.66 504.178 187.108 504.69 187.444C505.218 187.764 505.826 187.924 506.514 187.924Z" fill="white"/>
<path id="Deliver" d="M596.204 190.114V173.314H601.628C603.58 173.314 605.188 173.658 606.452 174.346C607.732 175.034 608.676 176.01 609.284 177.274C609.908 178.522 610.22 180.01 610.22 181.738C610.22 183.434 609.908 184.914 609.284 186.178C608.676 187.426 607.732 188.394 606.452 189.082C605.188 189.77 603.58 190.114 601.628 190.114H596.204ZM599.084 187.666H601.484C602.94 187.666 604.084 187.434 604.916 186.97C605.764 186.49 606.364 185.81 606.716 184.93C607.084 184.034 607.268 182.97 607.268 181.738C607.268 180.49 607.084 179.426 606.716 178.546C606.364 177.65 605.764 176.962 604.916 176.482C604.084 175.986 602.94 175.738 601.484 175.738H599.084V187.666ZM618.6 190.402C617.4 190.402 616.344 190.146 615.432 189.634C614.52 189.106 613.808 188.37 613.296 187.426C612.784 186.482 612.528 185.394 612.528 184.162C612.528 182.882 612.776 181.762 613.272 180.802C613.784 179.842 614.496 179.09 615.408 178.546C616.336 178.002 617.408 177.73 618.624 177.73C619.808 177.73 620.84 177.994 621.72 178.522C622.6 179.05 623.28 179.762 623.76 180.658C624.24 181.538 624.48 182.53 624.48 183.634C624.48 183.794 624.48 183.97 624.48 184.162C624.48 184.354 624.464 184.554 624.432 184.762H614.592V182.914H621.576C621.544 182.034 621.248 181.346 620.688 180.85C620.128 180.338 619.432 180.082 618.6 180.082C618.008 180.082 617.464 180.218 616.968 180.49C616.472 180.762 616.08 181.17 615.792 181.714C615.504 182.242 615.36 182.914 615.36 183.73V184.426C615.36 185.178 615.496 185.826 615.768 186.37C616.056 186.914 616.44 187.33 616.92 187.618C617.416 187.89 617.968 188.026 618.576 188.026C619.248 188.026 619.8 187.882 620.232 187.594C620.68 187.306 621.008 186.922 621.216 186.442H624.144C623.92 187.194 623.552 187.874 623.04 188.482C622.528 189.074 621.896 189.546 621.144 189.898C620.392 190.234 619.544 190.402 618.6 190.402ZM627.139 190.114V172.834H630.019V190.114H627.139ZM633.353 190.114V178.018H636.233V190.114H633.353ZM634.793 176.098C634.265 176.098 633.825 175.938 633.473 175.618C633.137 175.282 632.969 174.874 632.969 174.394C632.969 173.898 633.137 173.498 633.473 173.194C633.825 172.874 634.265 172.714 634.793 172.714C635.321 172.714 635.753 172.874 636.089 173.194C636.441 173.498 636.617 173.898 636.617 174.394C636.617 174.874 636.441 175.282 636.089 175.618C635.753 175.938 635.321 176.098 634.793 176.098ZM642.873 190.114L638.409 178.018H641.433L644.625 187.378L647.817 178.018H650.793L646.329 190.114H642.873ZM657.928 190.402C656.728 190.402 655.672 190.146 654.76 189.634C653.848 189.106 653.136 188.37 652.624 187.426C652.112 186.482 651.856 185.394 651.856 184.162C651.856 182.882 652.104 181.762 652.6 180.802C653.112 179.842 653.824 179.09 654.736 178.546C655.664 178.002 656.736 177.73 657.952 177.73C659.136 177.73 660.168 177.994 661.048 178.522C661.928 179.05 662.608 179.762 663.088 180.658C663.568 181.538 663.808 182.53 663.808 183.634C663.808 183.794 663.808 183.97 663.808 184.162C663.808 184.354 663.792 184.554 663.76 184.762H653.92V182.914H660.904C660.872 182.034 660.576 181.346 660.016 180.85C659.456 180.338 658.76 180.082 657.928 180.082C657.336 180.082 656.792 180.218 656.296 180.49C655.8 180.762 655.408 181.17 655.12 181.714C654.832 182.242 654.688 182.914 654.688 183.73V184.426C654.688 185.178 654.824 185.826 655.096 186.37C655.384 186.914 655.768 187.33 656.248 187.618C656.744 187.89 657.296 188.026 657.904 188.026C658.576 188.026 659.128 187.882 659.56 187.594C660.008 187.306 660.336 186.922 660.544 186.442H663.472C663.248 187.194 662.88 187.874 662.368 188.482C661.856 189.074 661.224 189.546 660.472 189.898C659.72 190.234 658.872 190.402 657.928 190.402ZM666.467 190.114V178.018H669.035L669.299 180.274C669.587 179.746 669.947 179.298 670.379 178.93C670.811 178.546 671.315 178.25 671.891 178.042C672.483 177.834 673.131 177.73 673.835 177.73V180.778H672.827C672.347 180.778 671.891 180.842 671.459 180.97C671.027 181.082 670.651 181.274 670.331 181.546C670.027 181.802 669.787 182.162 669.611 182.626C669.435 183.074 669.347 183.642 669.347 184.33V190.114H666.467Z" fill="white"/>
</g>
<g id="Prototype">
<path id="Prototype_2" d="M312.156 26.0093V9.20928H318.252C319.596 9.20928 320.7 9.43328 321.564 9.88128C322.444 10.3293 323.092 10.9373 323.508 11.7053C323.94 12.4733 324.156 13.3453 324.156 14.3213C324.156 15.2493 323.948 16.0973 323.532 16.8653C323.132 17.6333 322.492 18.2493 321.612 18.7133C320.732 19.1773 319.612 19.4093 318.252 19.4093H315.036V26.0093H312.156ZM315.036 17.0573H318.084C319.204 17.0573 320.004 16.8093 320.484 16.3133C320.98 15.8173 321.228 15.1533 321.228 14.3213C321.228 13.4573 320.98 12.7853 320.484 12.3053C320.004 11.8093 319.204 11.5613 318.084 11.5613H315.036V17.0573ZM326.521 26.0093V14.1053H329.09L329.354 16.3613C329.642 15.8333 329.994 15.3853 330.41 15.0173C330.826 14.6333 331.314 14.3373 331.874 14.1293C332.434 13.9213 333.058 13.8173 333.746 13.8173V16.8413H332.954C332.442 16.8413 331.97 16.9053 331.538 17.0333C331.106 17.1453 330.73 17.3373 330.41 17.6093C330.09 17.8813 329.842 18.2573 329.666 18.7373C329.49 19.2013 329.402 19.7773 329.402 20.4653V26.0093H326.521ZM341.255 26.2973C340.119 26.2973 339.087 26.0333 338.159 25.5053C337.247 24.9773 336.527 24.2493 335.999 23.3213C335.471 22.3773 335.207 21.2893 335.207 20.0573C335.207 18.8253 335.471 17.7373 335.999 16.7933C336.543 15.8493 337.271 15.1213 338.183 14.6093C339.111 14.0813 340.143 13.8173 341.279 13.8173C342.431 13.8173 343.463 14.0813 344.375 14.6093C345.287 15.1213 346.007 15.8493 346.535 16.7933C347.079 17.7213 347.351 18.8093 347.351 20.0573C347.351 21.2893 347.079 22.3773 346.535 23.3213C346.007 24.2493 345.279 24.9773 344.351 25.5053C343.439 26.0333 342.407 26.2973 341.255 26.2973ZM341.255 23.8253C341.831 23.8253 342.351 23.6893 342.815 23.4173C343.295 23.1293 343.679 22.7053 343.967 22.1453C344.255 21.5853 344.399 20.8893 344.399 20.0573C344.399 19.2253 344.255 18.5293 343.967 17.9693C343.679 17.4093 343.295 16.9933 342.815 16.7213C342.351 16.4333 341.839 16.2893 341.279 16.2893C340.735 16.2893 340.223 16.4333 339.743 16.7213C339.263 16.9933 338.871 17.4093 338.567 17.9693C338.279 18.5293 338.135 19.2253 338.135 20.0573C338.135 20.8733 338.279 21.5693 338.567 22.1453C338.871 22.7053 339.255 23.1293 339.719 23.4173C340.199 23.6893 340.711 23.8253 341.255 23.8253ZM354.815 26.0093C354.015 26.0093 353.311 25.8813 352.703 25.6253C352.095 25.3693 351.623 24.9453 351.287 24.3533C350.967 23.7613 350.807 22.9613 350.807 21.9533V16.5053H348.767V14.1053H350.807L351.143 10.9853H353.687V14.1053H356.951V16.5053H353.687V21.9533C353.687 22.5613 353.815 22.9853 354.071 23.2253C354.327 23.4493 354.775 23.5613 355.415 23.5613H356.855V26.0093H354.815ZM364.927 26.2973C363.791 26.2973 362.759 26.0333 361.831 25.5053C360.919 24.9773 360.199 24.2493 359.671 23.3213C359.143 22.3773 358.879 21.2893 358.879 20.0573C358.879 18.8253 359.143 17.7373 359.671 16.7933C360.215 15.8493 360.943 15.1213 361.855 14.6093C362.783 14.0813 363.815 13.8173 364.951 13.8173C366.103 13.8173 367.135 14.0813 368.047 14.6093C368.959 15.1213 369.679 15.8493 370.207 16.7933C370.751 17.7213 371.023 18.8093 371.023 20.0573C371.023 21.2893 370.751 22.3773 370.207 23.3213C369.679 24.2493 368.951 24.9773 368.023 25.5053C367.111 26.0333 366.079 26.2973 364.927 26.2973ZM364.927 23.8253C365.503 23.8253 366.023 23.6893 366.487 23.4173C366.967 23.1293 367.351 22.7053 367.639 22.1453C367.927 21.5853 368.071 20.8893 368.071 20.0573C368.071 19.2253 367.927 18.5293 367.639 17.9693C367.351 17.4093 366.967 16.9933 366.487 16.7213C366.023 16.4333 365.511 16.2893 364.951 16.2893C364.407 16.2893 363.895 16.4333 363.415 16.7213C362.935 16.9933 362.543 17.4093 362.239 17.9693C361.951 18.5293 361.807 19.2253 361.807 20.0573C361.807 20.8733 361.951 21.5693 362.239 22.1453C362.543 22.7053 362.927 23.1293 363.391 23.4173C363.871 23.6893 364.383 23.8253 364.927 23.8253ZM378.487 26.0093C377.687 26.0093 376.983 25.8813 376.375 25.6253C375.767 25.3693 375.295 24.9453 374.959 24.3533C374.639 23.7613 374.479 22.9613 374.479 21.9533V16.5053H372.439V14.1053H374.479L374.815 10.9853H377.359V14.1053H380.623V16.5053H377.359V21.9533C377.359 22.5613 377.487 22.9853 377.743 23.2253C377.999 23.4493 378.447 23.5613 379.087 23.5613H380.527V26.0093H378.487ZM384.704 31.2893L387.68 24.6653H386.96L382.136 14.1053H385.256L388.904 22.1453L392.312 14.1053H395.36L387.752 31.2893H384.704ZM397.42 31.2893V14.1053H399.988L400.3 15.8573C400.556 15.5053 400.868 15.1693 401.236 14.8493C401.604 14.5293 402.044 14.2813 402.556 14.1053C403.068 13.9133 403.668 13.8173 404.356 13.8173C405.492 13.8173 406.492 14.0893 407.356 14.6333C408.236 15.1773 408.932 15.9213 409.444 16.8653C409.956 17.8093 410.212 18.8813 410.212 20.0813C410.212 21.2813 409.956 22.3533 409.444 23.2973C408.932 24.2253 408.236 24.9613 407.356 25.5053C406.476 26.0333 405.468 26.2973 404.332 26.2973C403.42 26.2973 402.62 26.1293 401.932 25.7933C401.26 25.4413 400.716 24.9453 400.3 24.3053V31.2893H397.42ZM403.756 23.8013C404.444 23.8013 405.052 23.6413 405.58 23.3213C406.124 23.0013 406.54 22.5613 406.828 22.0013C407.132 21.4413 407.284 20.7933 407.284 20.0573C407.284 19.3373 407.132 18.6973 406.828 18.1373C406.54 17.5613 406.124 17.1133 405.58 16.7933C405.052 16.4733 404.444 16.3133 403.756 16.3133C403.068 16.3133 402.46 16.4733 401.932 16.7933C401.404 17.1133 400.988 17.5533 400.684 18.1133C400.396 18.6733 400.252 19.3213 400.252 20.0573C400.252 20.7933 400.396 21.4413 400.684 22.0013C400.988 22.5613 401.404 23.0013 401.932 23.3213C402.46 23.6413 403.068 23.8013 403.756 23.8013ZM418.671 26.2973C417.471 26.2973 416.407 26.0413 415.479 25.5293C414.567 25.0013 413.847 24.2813 413.319 23.3693C412.807 22.4413 412.551 21.3613 412.551 20.1293C412.551 18.8813 412.807 17.7853 413.319 16.8413C413.831 15.8973 414.543 15.1613 415.455 14.6333C416.383 14.0893 417.455 13.8173 418.671 13.8173C419.855 13.8173 420.887 14.0813 421.767 14.6093C422.647 15.1213 423.335 15.8093 423.831 16.6733C424.327 17.5373 424.575 18.5133 424.575 19.6013C424.575 19.7613 424.567 19.9373 424.551 20.1293C424.551 20.3213 424.543 20.5293 424.527 20.7533H414.615V18.9053H421.671C421.623 18.0573 421.319 17.3933 420.759 16.9133C420.199 16.4173 419.503 16.1693 418.671 16.1693C418.079 16.1693 417.527 16.3053 417.015 16.5773C416.519 16.8333 416.119 17.2253 415.815 17.7533C415.527 18.2653 415.383 18.9213 415.383 19.7213V20.4173C415.383 21.1533 415.527 21.7853 415.815 22.3133C416.103 22.8253 416.495 23.2253 416.991 23.5133C417.487 23.7853 418.039 23.9213 418.647 23.9213C419.303 23.9213 419.855 23.7773 420.303 23.4893C420.751 23.1853 421.087 22.7853 421.311 22.2893H424.215C424.007 23.0573 423.639 23.7453 423.111 24.3533C422.599 24.9453 421.967 25.4173 421.215 25.7693C420.463 26.1213 419.615 26.2973 418.671 26.2973Z" fill="white"/>
<path id="arrow" d="M369 40.0591C369 39.7829 368.776 39.5591 368.5 39.5591C368.224 39.5591 368 39.7829 368 40.0591L368.5 40.0591L369 40.0591ZM368.146 145.413C368.342 145.608 368.658 145.608 368.854 145.413L372.036 142.231C372.231 142.035 372.231 141.719 372.036 141.524C371.84 141.328 371.524 141.328 371.328 141.524L368.5 144.352L365.672 141.524C365.476 141.328 365.16 141.328 364.964 141.524C364.769 141.719 364.769 142.035 364.964 142.231L368.146 145.413ZM368.5 40.0591L368 40.0591L368 41.5158L368.5 41.5158L369 41.5158L369 40.0591L368.5 40.0591ZM368.5 47.3524L368 47.3524L368 50.2658L368.5 50.2658L369 50.2658L369 47.3524L368.5 47.3524ZM368.5 56.1024L368 56.1024L368 59.0158L368.5 59.0158L369 59.0158L369 56.1024L368.5 56.1024ZM368.5 64.8524L368 64.8524L368 67.7658L368.5 67.7658L369 67.7658L369 64.8524L368.5 64.8524ZM368.5 73.6024L368 73.6024L368 76.5158L368.5 76.5158L369 76.5158L369 73.6024L368.5 73.6024ZM368.5 82.3524L368 82.3524L368 85.2658L368.5 85.2658L369 85.2658L369 82.3524L368.5 82.3524ZM368.5 91.1024L368 91.1024L368 94.0158L368.5 94.0158L369 94.0158L369 91.1024L368.5 91.1024ZM368.5 99.8524L368 99.8524L368 102.766L368.5 102.766L369 102.766L369 99.8524L368.5 99.8524ZM368.5 108.602L368 108.602L368 111.516L368.5 111.516L369 111.516L369 108.602L368.5 108.602ZM368.5 117.352L368 117.352L368 120.266L368.5 120.266L369 120.266L369 117.352L368.5 117.352ZM368.5 126.102L368 126.102L368 129.016L368.5 129.016L369 129.016L369 126.102L368.5 126.102ZM368.5 134.852L368 134.852L368 137.766L368.5 137.766L369 137.766L369 134.852L368.5 134.852ZM368.5 143.602L368 143.602L368 145.059L368.5 145.059L369 145.059L369 143.602L368.5 143.602Z" fill="#C5FA00"/>
</g>
</g>
</g>
</g>
</svg>
