<svg width="307" height="650" viewBox="0 0 307 650" fill="none" xmlns="http://www.w3.org/2000/svg">
<path d="M304.589 153.233C304.589 155.022 303.906 156.816 302.537 158.181L157.768 302.95C155.034 305.684 150.602 305.684 147.868 302.95L3.10366 158.181C1.73879 156.816 1.05195 155.022 1.05195 153.233" stroke="#C5FA00" stroke-width="2" stroke-miterlimit="10"/>
<path d="M1 152.768C1 150.979 1.68245 149.186 3.05172 147.821L147.818 3.05061C150.553 0.316462 154.984 0.316462 157.718 3.05061L302.485 147.816C303.85 149.181 304.537 150.975 304.537 152.764" stroke="#C5FA00" stroke-width="2" stroke-miterlimit="10"/>
<path d="M117.82 106.238V89.4383H123.46C125.412 89.4383 127.028 89.7823 128.308 90.4703C129.588 91.1583 130.532 92.1343 131.14 93.3983C131.764 94.6463 132.076 96.1343 132.076 97.8623C132.076 99.5583 131.764 101.038 131.14 102.302C130.532 103.55 129.588 104.518 128.308 105.206C127.044 105.894 125.428 106.238 123.46 106.238H117.82ZM120.7 103.79H123.316C124.772 103.79 125.924 103.558 126.772 103.094C127.62 102.614 128.22 101.934 128.572 101.054C128.94 100.158 129.124 99.0943 129.124 97.8623C129.124 96.6143 128.94 95.5503 128.572 94.6703C128.22 93.7743 127.62 93.0863 126.772 92.6063C125.924 92.1103 124.772 91.8623 123.316 91.8623H120.7V103.79ZM140.452 106.526C139.252 106.526 138.188 106.27 137.26 105.758C136.348 105.23 135.628 104.51 135.1 103.598C134.588 102.67 134.332 101.59 134.332 100.358C134.332 99.1103 134.588 98.0143 135.1 97.0703C135.612 96.1263 136.324 95.3903 137.236 94.8623C138.164 94.3183 139.236 94.0463 140.452 94.0463C141.636 94.0463 142.668 94.3103 143.548 94.8383C144.428 95.3503 145.116 96.0383 145.612 96.9023C146.108 97.7663 146.356 98.7423 146.356 99.8303C146.356 99.9903 146.348 100.166 146.332 100.358C146.332 100.55 146.324 100.758 146.308 100.982H136.396V99.1343H143.452C143.404 98.2863 143.1 97.6223 142.54 97.1423C141.98 96.6463 141.284 96.3983 140.452 96.3983C139.86 96.3983 139.308 96.5343 138.796 96.8063C138.3 97.0623 137.9 97.4543 137.596 97.9823C137.308 98.4943 137.164 99.1503 137.164 99.9503V100.646C137.164 101.382 137.308 102.014 137.596 102.542C137.884 103.054 138.276 103.454 138.772 103.742C139.268 104.014 139.82 104.15 140.428 104.15C141.084 104.15 141.636 104.006 142.084 103.718C142.532 103.414 142.868 103.014 143.092 102.518H145.996C145.788 103.286 145.42 103.974 144.892 104.582C144.38 105.174 143.748 105.646 142.996 105.998C142.244 106.35 141.396 106.526 140.452 106.526ZM149.519 106.238V92.8223C149.519 91.8943 149.679 91.1503 149.999 90.5903C150.319 90.0143 150.775 89.5983 151.367 89.3423C151.959 89.0863 152.655 88.9583 153.455 88.9583H154.751V91.4063H153.911C153.367 91.4063 152.975 91.5183 152.735 91.7423C152.511 91.9503 152.399 92.3183 152.399 92.8463V106.238L149.519 106.238ZM147.863 96.7343V94.3343H155.039V96.7343H147.863ZM157.618 106.238V94.3343H160.498V106.238H157.618ZM159.082 92.3423C158.538 92.3423 158.098 92.1823 157.762 91.8623C157.426 91.5263 157.258 91.1183 157.258 90.6383C157.258 90.1423 157.426 89.7423 157.762 89.4383C158.098 89.1183 158.538 88.9583 159.082 88.9583C159.61 88.9583 160.042 89.1183 160.378 89.4383C160.73 89.7423 160.906 90.1423 160.906 90.6383C160.906 91.1183 160.73 91.5263 160.378 91.8623C160.042 92.1823 159.61 92.3423 159.082 92.3423ZM163.779 106.238V94.3343H166.323L166.539 96.3743C166.923 95.6703 167.459 95.1103 168.147 94.6943C168.851 94.2623 169.667 94.0463 170.595 94.0463C171.587 94.0463 172.427 94.2543 173.115 94.6703C173.803 95.0703 174.331 95.6783 174.699 96.4943C175.067 97.2943 175.251 98.2863 175.251 99.4703V106.238H172.395V99.7583C172.395 98.7023 172.171 97.8943 171.723 97.3343C171.291 96.7583 170.619 96.4703 169.707 96.4703C169.115 96.4703 168.587 96.6143 168.123 96.9023C167.675 97.1903 167.315 97.6063 167.043 98.1503C166.787 98.6783 166.659 99.3263 166.659 100.094V106.238H163.779ZM183.905 106.526C182.705 106.526 181.641 106.27 180.713 105.758C179.801 105.23 179.081 104.51 178.553 103.598C178.041 102.67 177.785 101.59 177.785 100.358C177.785 99.1103 178.041 98.0143 178.553 97.0703C179.065 96.1263 179.777 95.3903 180.689 94.8623C181.617 94.3183 182.689 94.0463 183.905 94.0463C185.089 94.0463 186.121 94.3103 187.001 94.8383C187.881 95.3503 188.569 96.0383 189.065 96.9023C189.561 97.7663 189.809 98.7423 189.809 99.8303C189.809 99.9903 189.801 100.166 189.785 100.358C189.785 100.55 189.777 100.758 189.761 100.982H179.849V99.1343H186.905C186.857 98.2863 186.553 97.6223 185.993 97.1423C185.433 96.6463 184.737 96.3983 183.905 96.3983C183.313 96.3983 182.761 96.5343 182.249 96.8063C181.753 97.0623 181.353 97.4543 181.049 97.9823C180.761 98.4943 180.617 99.1503 180.617 99.9503V100.646C180.617 101.382 180.761 102.014 181.049 102.542C181.337 103.054 181.729 103.454 182.225 103.742C182.721 104.014 183.273 104.15 183.881 104.15C184.537 104.15 185.089 104.006 185.537 103.718C185.985 103.414 186.321 103.014 186.545 102.518H189.449C189.241 103.286 188.873 103.974 188.345 104.582C187.833 105.174 187.201 105.646 186.449 105.998C185.697 106.35 184.849 106.526 183.905 106.526Z" fill="white"/>
<path d="M115.981 216.001V199.201H121.405C123.357 199.201 124.965 199.545 126.229 200.233C127.509 200.921 128.453 201.897 129.061 203.161C129.685 204.409 129.997 205.897 129.997 207.625C129.997 209.321 129.685 210.801 129.061 212.065C128.453 213.313 127.509 214.281 126.229 214.969C124.965 215.657 123.357 216.001 121.405 216.001H115.981ZM118.861 213.553H121.261C122.717 213.553 123.861 213.321 124.693 212.857C125.541 212.377 126.141 211.697 126.493 210.817C126.861 209.921 127.045 208.857 127.045 207.625C127.045 206.377 126.861 205.313 126.493 204.433C126.141 203.537 125.541 202.849 124.693 202.369C123.861 201.873 122.717 201.625 121.261 201.625H118.861V213.553ZM138.377 216.289C137.177 216.289 136.121 216.033 135.209 215.521C134.297 214.993 133.585 214.257 133.073 213.313C132.561 212.369 132.305 211.281 132.305 210.049C132.305 208.769 132.553 207.649 133.049 206.689C133.561 205.729 134.273 204.977 135.185 204.433C136.113 203.889 137.185 203.617 138.401 203.617C139.585 203.617 140.617 203.881 141.497 204.409C142.377 204.937 143.057 205.649 143.537 206.545C144.017 207.425 144.257 208.417 144.257 209.521C144.257 209.681 144.257 209.857 144.257 210.049C144.257 210.241 144.241 210.441 144.209 210.649H134.369V208.801H141.353C141.321 207.921 141.025 207.233 140.465 206.737C139.905 206.225 139.209 205.969 138.377 205.969C137.785 205.969 137.241 206.105 136.745 206.377C136.249 206.649 135.857 207.057 135.569 207.601C135.281 208.129 135.137 208.801 135.137 209.617V210.313C135.137 211.065 135.273 211.713 135.545 212.257C135.833 212.801 136.217 213.217 136.697 213.505C137.193 213.777 137.745 213.913 138.353 213.913C139.025 213.913 139.577 213.769 140.009 213.481C140.457 213.193 140.785 212.809 140.993 212.329H143.921C143.697 213.081 143.329 213.761 142.817 214.369C142.305 214.961 141.673 215.433 140.921 215.785C140.169 216.121 139.321 216.289 138.377 216.289ZM151.74 216.289C150.668 216.289 149.732 216.121 148.932 215.785C148.148 215.433 147.524 214.953 147.06 214.345C146.612 213.721 146.348 213.009 146.268 212.209H149.148C149.228 212.545 149.372 212.857 149.58 213.145C149.788 213.417 150.068 213.633 150.42 213.793C150.788 213.953 151.22 214.033 151.716 214.033C152.196 214.033 152.588 213.969 152.892 213.841C153.196 213.697 153.42 213.513 153.564 213.289C153.708 213.065 153.78 212.825 153.78 212.569C153.78 212.185 153.676 211.889 153.468 211.681C153.26 211.473 152.956 211.313 152.556 211.201C152.172 211.073 151.708 210.953 151.164 210.841C150.588 210.729 150.028 210.593 149.484 210.433C148.956 210.257 148.476 210.041 148.044 209.785C147.628 209.529 147.292 209.201 147.036 208.801C146.796 208.401 146.676 207.913 146.676 207.337C146.676 206.633 146.86 206.001 147.228 205.441C147.612 204.881 148.156 204.441 148.86 204.121C149.58 203.785 150.436 203.617 151.428 203.617C152.836 203.617 153.956 203.945 154.788 204.601C155.636 205.241 156.132 206.145 156.276 207.313H153.54C153.46 206.865 153.236 206.521 152.868 206.281C152.5 206.025 152.012 205.897 151.404 205.897C150.78 205.897 150.3 206.017 149.964 206.257C149.644 206.481 149.484 206.785 149.484 207.169C149.484 207.409 149.58 207.633 149.772 207.841C149.98 208.033 150.276 208.201 150.66 208.345C151.044 208.473 151.516 208.601 152.076 208.729C152.972 208.905 153.764 209.113 154.452 209.353C155.14 209.593 155.684 209.945 156.084 210.409C156.484 210.873 156.684 211.529 156.684 212.377C156.7 213.145 156.5 213.825 156.084 214.417C155.684 215.009 155.116 215.473 154.38 215.809C153.644 216.129 152.764 216.289 151.74 216.289ZM159.599 216.001V203.905H162.479V216.001H159.599ZM161.039 201.985C160.511 201.985 160.071 201.825 159.719 201.505C159.383 201.169 159.215 200.761 159.215 200.281C159.215 199.785 159.383 199.385 159.719 199.081C160.071 198.761 160.511 198.601 161.039 198.601C161.567 198.601 161.999 198.761 162.335 199.081C162.687 199.385 162.863 199.785 162.863 200.281C162.863 200.761 162.687 201.169 162.335 201.505C161.999 201.825 161.567 201.985 161.039 201.985ZM170.895 221.569C169.759 221.569 168.759 221.425 167.895 221.137C167.047 220.865 166.383 220.441 165.903 219.865C165.439 219.305 165.207 218.601 165.207 217.753C165.207 217.257 165.327 216.769 165.567 216.289C165.823 215.825 166.199 215.393 166.695 214.993C167.207 214.577 167.855 214.217 168.639 213.913L169.911 215.305C169.143 215.577 168.607 215.905 168.303 216.289C167.999 216.673 167.847 217.065 167.847 217.465C167.847 217.881 167.975 218.225 168.231 218.497C168.503 218.785 168.863 219.001 169.311 219.145C169.775 219.289 170.295 219.361 170.871 219.361C171.431 219.361 171.919 219.281 172.335 219.121C172.751 218.977 173.071 218.769 173.295 218.497C173.535 218.225 173.655 217.897 173.655 217.513C173.655 217.033 173.487 216.641 173.151 216.337C172.815 216.049 172.151 215.873 171.159 215.809C170.311 215.745 169.567 215.657 168.927 215.545C168.287 215.417 167.735 215.273 167.271 215.113C166.823 214.953 166.439 214.777 166.119 214.585C165.799 214.377 165.535 214.169 165.327 213.961V213.409L167.847 210.769L169.983 211.465L167.151 214.225L167.895 212.833C168.055 212.945 168.215 213.049 168.375 213.145C168.551 213.241 168.767 213.329 169.023 213.409C169.295 213.473 169.647 213.537 170.079 213.601C170.511 213.665 171.071 213.729 171.759 213.793C172.831 213.873 173.703 214.065 174.375 214.369C175.047 214.673 175.543 215.081 175.863 215.593C176.183 216.105 176.343 216.721 176.343 217.441C176.343 218.145 176.143 218.809 175.743 219.433C175.359 220.057 174.767 220.569 173.967 220.969C173.167 221.369 172.143 221.569 170.895 221.569ZM170.895 212.377C169.887 212.377 169.015 212.185 168.279 211.801C167.559 211.401 167.007 210.873 166.623 210.217C166.239 209.545 166.047 208.809 166.047 208.009C166.047 207.193 166.239 206.457 166.623 205.801C167.007 205.145 167.559 204.617 168.279 204.217C169.015 203.817 169.887 203.617 170.895 203.617C171.903 203.617 172.767 203.817 173.487 204.217C174.207 204.617 174.759 205.145 175.143 205.801C175.527 206.457 175.719 207.193 175.719 208.009C175.719 208.809 175.527 209.545 175.143 210.217C174.759 210.873 174.207 211.401 173.487 211.801C172.767 212.185 171.903 212.377 170.895 212.377ZM170.895 210.145C171.583 210.145 172.135 209.961 172.551 209.593C172.967 209.225 173.175 208.697 173.175 208.009C173.175 207.321 172.967 206.801 172.551 206.449C172.135 206.081 171.583 205.897 170.895 205.897C170.207 205.897 169.647 206.081 169.215 206.449C168.783 206.801 168.567 207.321 168.567 208.009C168.567 208.697 168.783 209.225 169.215 209.593C169.647 209.961 170.207 210.145 170.895 210.145ZM172.887 206.017L172.335 203.905H177.303V205.705L172.887 206.017ZM179.846 216.001V203.905H182.39L182.606 205.921C182.974 205.217 183.502 204.657 184.19 204.241C184.878 203.825 185.694 203.617 186.638 203.617C187.614 203.617 188.446 203.825 189.134 204.241C189.822 204.641 190.35 205.233 190.718 206.017C191.102 206.801 191.294 207.777 191.294 208.945V216.001H188.414V209.209C188.414 208.201 188.19 207.425 187.742 206.881C187.294 206.337 186.63 206.065 185.75 206.065C185.174 206.065 184.654 206.201 184.19 206.473C183.742 206.745 183.382 207.145 183.11 207.673C182.854 208.185 182.726 208.809 182.726 209.545V216.001H179.846Z" fill="white"/>
<path d="M305 153.163L0.999947 153.163" stroke="#C5FA00" stroke-width="2" stroke-miterlimit="10" stroke-dasharray="3 6"/>
<path d="M305.091 497C305.091 498.792 304.407 500.589 303.036 501.956L158.045 646.946C155.307 649.685 150.869 649.685 148.13 646.946L3.14432 501.956C1.77734 500.589 1.08948 498.792 1.08948 497" fill="#C5FA00"/>
<path d="M305.091 497C305.091 498.792 304.407 500.589 303.036 501.956L158.045 646.946C155.307 649.685 150.869 649.685 148.13 646.946L3.14431 501.956C1.77734 500.589 1.08948 498.792 1.08948 497" stroke="#C5FA00" stroke-width="2" stroke-miterlimit="10"/>
<path d="M305.001 497L0.999941 497" stroke="#C5FA00" stroke-width="2" stroke-miterlimit="10" stroke-dasharray="3 6"/>
<path d="M1.17901 497.001C1.17901 495.209 1.86249 493.412 3.23386 492.045L148.222 347.054C150.96 344.315 155.399 344.315 158.137 347.054L303.125 492.041C304.492 493.408 305.18 495.204 305.18 496.996" stroke="#C5FA00" stroke-width="2" stroke-miterlimit="10"/>
<path d="M107.863 450.238V433.438H113.503C115.455 433.438 117.071 433.782 118.351 434.47C119.631 435.158 120.575 436.134 121.183 437.398C121.807 438.646 122.119 440.134 122.119 441.862C122.119 443.558 121.807 445.038 121.183 446.302C120.575 447.55 119.631 448.518 118.351 449.206C117.087 449.894 115.471 450.238 113.503 450.238H107.863ZM110.743 447.79H113.359C114.815 447.79 115.967 447.558 116.815 447.094C117.663 446.614 118.263 445.934 118.615 445.054C118.983 444.158 119.167 443.094 119.167 441.862C119.167 440.614 118.983 439.55 118.615 438.67C118.263 437.774 117.663 437.086 116.815 436.606C115.967 436.11 114.815 435.862 113.359 435.862H110.743V447.79ZM130.495 450.526C129.295 450.526 128.231 450.27 127.303 449.758C126.391 449.23 125.671 448.51 125.143 447.598C124.631 446.67 124.375 445.59 124.375 444.358C124.375 443.11 124.631 442.014 125.143 441.07C125.655 440.126 126.367 439.39 127.279 438.862C128.207 438.318 129.279 438.046 130.495 438.046C131.679 438.046 132.711 438.31 133.591 438.838C134.471 439.35 135.159 440.038 135.655 440.902C136.151 441.766 136.399 442.742 136.399 443.83C136.399 443.99 136.391 444.166 136.375 444.358C136.375 444.55 136.367 444.758 136.351 444.982H126.439V443.134H133.495C133.447 442.286 133.143 441.622 132.583 441.142C132.023 440.646 131.327 440.398 130.495 440.398C129.903 440.398 129.351 440.534 128.839 440.806C128.343 441.062 127.943 441.454 127.639 441.982C127.351 442.494 127.207 443.15 127.207 443.95V444.646C127.207 445.382 127.351 446.014 127.639 446.542C127.927 447.054 128.319 447.454 128.815 447.742C129.311 448.014 129.863 448.15 130.471 448.15C131.127 448.15 131.679 448.006 132.127 447.718C132.575 447.414 132.911 447.014 133.135 446.518H136.039C135.831 447.286 135.463 447.974 134.935 448.582C134.423 449.174 133.791 449.646 133.039 449.998C132.287 450.35 131.439 450.526 130.495 450.526ZM141.805 450.238L137.389 438.334H140.413L143.533 447.502L146.677 438.334H149.653L145.261 450.238H141.805ZM156.792 450.526C155.592 450.526 154.528 450.27 153.6 449.758C152.688 449.23 151.968 448.51 151.44 447.598C150.928 446.67 150.672 445.59 150.672 444.358C150.672 443.11 150.928 442.014 151.44 441.07C151.952 440.126 152.664 439.39 153.576 438.862C154.504 438.318 155.576 438.046 156.792 438.046C157.976 438.046 159.008 438.31 159.888 438.838C160.768 439.35 161.456 440.038 161.952 440.902C162.448 441.766 162.696 442.742 162.696 443.83C162.696 443.99 162.688 444.166 162.672 444.358C162.672 444.55 162.664 444.758 162.648 444.982H152.736V443.134H159.792C159.744 442.286 159.44 441.622 158.88 441.142C158.32 440.646 157.624 440.398 156.792 440.398C156.2 440.398 155.648 440.534 155.136 440.806C154.64 441.062 154.24 441.454 153.936 441.982C153.648 442.494 153.504 443.15 153.504 443.95V444.646C153.504 445.382 153.648 446.014 153.936 446.542C154.224 447.054 154.616 447.454 155.112 447.742C155.608 448.014 156.16 448.15 156.768 448.15C157.424 448.15 157.976 448.006 158.424 447.718C158.872 447.414 159.208 447.014 159.432 446.518H162.336C162.128 447.286 161.76 447.974 161.232 448.582C160.72 449.174 160.088 449.646 159.336 449.998C158.584 450.35 157.736 450.526 156.792 450.526ZM165.306 450.238V432.958H168.186V450.238H165.306ZM176.993 450.526C175.857 450.526 174.825 450.262 173.897 449.734C172.985 449.206 172.265 448.478 171.737 447.55C171.209 446.606 170.945 445.518 170.945 444.286C170.945 443.054 171.209 441.966 171.737 441.022C172.281 440.078 173.009 439.35 173.921 438.838C174.849 438.31 175.881 438.046 177.017 438.046C178.169 438.046 179.201 438.31 180.113 438.838C181.025 439.35 181.745 440.078 182.273 441.022C182.817 441.95 183.089 443.038 183.089 444.286C183.089 445.518 182.817 446.606 182.273 447.55C181.745 448.478 181.017 449.206 180.089 449.734C179.177 450.262 178.145 450.526 176.993 450.526ZM176.993 448.054C177.569 448.054 178.089 447.918 178.553 447.646C179.033 447.358 179.417 446.934 179.705 446.374C179.993 445.814 180.137 445.118 180.137 444.286C180.137 443.454 179.993 442.758 179.705 442.198C179.417 441.638 179.033 441.222 178.553 440.95C178.089 440.662 177.577 440.518 177.017 440.518C176.473 440.518 175.961 440.662 175.481 440.95C175.001 441.222 174.609 441.638 174.305 442.198C174.017 442.758 173.873 443.454 173.873 444.286C173.873 445.102 174.017 445.798 174.305 446.374C174.609 446.934 174.993 447.358 175.457 447.646C175.937 447.918 176.449 448.054 176.993 448.054ZM185.838 455.518V438.334H188.406L188.718 440.086C188.974 439.734 189.286 439.398 189.654 439.078C190.022 438.758 190.462 438.51 190.974 438.334C191.486 438.142 192.086 438.046 192.774 438.046C193.91 438.046 194.91 438.318 195.774 438.862C196.654 439.406 197.35 440.15 197.862 441.094C198.374 442.038 198.63 443.11 198.63 444.31C198.63 445.51 198.374 446.582 197.862 447.526C197.35 448.454 196.654 449.19 195.774 449.734C194.894 450.262 193.886 450.526 192.75 450.526C191.838 450.526 191.038 450.358 190.35 450.022C189.678 449.67 189.134 449.174 188.718 448.534V455.518H185.838ZM192.174 448.03C192.862 448.03 193.47 447.87 193.998 447.55C194.542 447.23 194.958 446.79 195.246 446.23C195.55 445.67 195.702 445.022 195.702 444.286C195.702 443.566 195.55 442.926 195.246 442.366C194.958 441.79 194.542 441.342 193.998 441.022C193.47 440.702 192.862 440.542 192.174 440.542C191.486 440.542 190.878 440.702 190.35 441.022C189.822 441.342 189.406 441.782 189.102 442.342C188.814 442.902 188.67 443.55 188.67 444.286C188.67 445.022 188.814 445.67 189.102 446.23C189.406 446.79 189.822 447.23 190.35 447.55C190.878 447.87 191.486 448.03 192.174 448.03Z" fill="white"/>
<path d="M114.824 560.001V543.201H120.464C122.416 543.201 124.032 543.545 125.312 544.233C126.592 544.921 127.536 545.897 128.144 547.161C128.768 548.409 129.08 549.897 129.08 551.625C129.08 553.321 128.768 554.801 128.144 556.065C127.536 557.313 126.592 558.281 125.312 558.969C124.048 559.657 122.432 560.001 120.464 560.001H114.824ZM117.704 557.553H120.32C121.776 557.553 122.928 557.321 123.776 556.857C124.624 556.377 125.224 555.697 125.576 554.817C125.944 553.921 126.128 552.857 126.128 551.625C126.128 550.377 125.944 549.313 125.576 548.433C125.224 547.537 124.624 546.849 123.776 546.369C122.928 545.873 121.776 545.625 120.32 545.625H117.704V557.553ZM137.456 560.289C136.256 560.289 135.192 560.033 134.264 559.521C133.352 558.993 132.632 558.273 132.104 557.361C131.592 556.433 131.336 555.353 131.336 554.121C131.336 552.873 131.592 551.777 132.104 550.833C132.616 549.889 133.328 549.153 134.24 548.625C135.168 548.081 136.24 547.809 137.456 547.809C138.64 547.809 139.672 548.073 140.552 548.601C141.432 549.113 142.12 549.801 142.616 550.665C143.112 551.529 143.36 552.505 143.36 553.593C143.36 553.753 143.352 553.929 143.336 554.121C143.336 554.313 143.328 554.521 143.312 554.745H133.4V552.897H140.456C140.408 552.049 140.104 551.385 139.544 550.905C138.984 550.409 138.288 550.161 137.456 550.161C136.864 550.161 136.312 550.297 135.8 550.569C135.304 550.825 134.904 551.217 134.6 551.745C134.312 552.257 134.168 552.913 134.168 553.713V554.409C134.168 555.145 134.312 555.777 134.6 556.305C134.888 556.817 135.28 557.217 135.776 557.505C136.272 557.777 136.824 557.913 137.432 557.913C138.088 557.913 138.64 557.769 139.088 557.481C139.536 557.177 139.872 556.777 140.096 556.281H143C142.792 557.049 142.424 557.737 141.896 558.345C141.384 558.937 140.752 559.409 140 559.761C139.248 560.113 138.4 560.289 137.456 560.289ZM145.971 560.001V542.721H148.851V560.001H145.971ZM152.137 560.001V548.097H155.017V560.001H152.137ZM153.601 546.105C153.057 546.105 152.617 545.945 152.281 545.625C151.945 545.289 151.777 544.881 151.777 544.401C151.777 543.905 151.945 543.505 152.281 543.201C152.617 542.881 153.057 542.721 153.601 542.721C154.129 542.721 154.561 542.881 154.897 543.201C155.249 543.505 155.425 543.905 155.425 544.401C155.425 544.881 155.249 545.289 154.897 545.625C154.561 545.945 154.129 546.105 153.601 546.105ZM161.563 560.001L157.147 548.097H160.171L163.291 557.265L166.435 548.097H169.411L165.019 560.001H161.563ZM176.55 560.289C175.35 560.289 174.286 560.033 173.358 559.521C172.446 558.993 171.726 558.273 171.198 557.361C170.686 556.433 170.43 555.353 170.43 554.121C170.43 552.873 170.686 551.777 171.198 550.833C171.71 549.889 172.422 549.153 173.334 548.625C174.262 548.081 175.334 547.809 176.55 547.809C177.734 547.809 178.766 548.073 179.646 548.601C180.526 549.113 181.214 549.801 181.71 550.665C182.206 551.529 182.454 552.505 182.454 553.593C182.454 553.753 182.446 553.929 182.43 554.121C182.43 554.313 182.422 554.521 182.406 554.745H172.494V552.897H179.55C179.502 552.049 179.198 551.385 178.638 550.905C178.078 550.409 177.382 550.161 176.55 550.161C175.958 550.161 175.406 550.297 174.894 550.569C174.398 550.825 173.998 551.217 173.694 551.745C173.406 552.257 173.262 552.913 173.262 553.713V554.409C173.262 555.145 173.406 555.777 173.694 556.305C173.982 556.817 174.374 557.217 174.87 557.505C175.366 557.777 175.918 557.913 176.526 557.913C177.182 557.913 177.734 557.769 178.182 557.481C178.63 557.177 178.966 556.777 179.19 556.281H182.094C181.886 557.049 181.518 557.737 180.99 558.345C180.478 558.937 179.846 559.409 179.094 559.761C178.342 560.113 177.494 560.289 176.55 560.289ZM185.064 560.001V548.097H187.632L187.896 550.353C188.184 549.825 188.536 549.377 188.952 549.009C189.368 548.625 189.856 548.329 190.416 548.121C190.976 547.913 191.6 547.809 192.288 547.809V550.833H191.496C190.984 550.833 190.512 550.897 190.08 551.025C189.648 551.137 189.272 551.329 188.952 551.601C188.632 551.873 188.384 552.249 188.208 552.729C188.032 553.193 187.944 553.769 187.944 554.457V560.001H185.064Z" fill="#303030"/>
<path d="M97.105 333V316.2H103.201C104.545 316.2 105.649 316.424 106.513 316.872C107.393 317.32 108.041 317.928 108.457 318.696C108.889 319.464 109.105 320.336 109.105 321.312C109.105 322.24 108.897 323.088 108.481 323.856C108.081 324.624 107.441 325.24 106.561 325.704C105.681 326.168 104.561 326.4 103.201 326.4H99.985V333H97.105ZM99.985 324.048H103.033C104.153 324.048 104.953 323.8 105.433 323.304C105.929 322.808 106.177 322.144 106.177 321.312C106.177 320.448 105.929 319.776 105.433 319.296C104.953 318.8 104.153 318.552 103.033 318.552H99.985V324.048ZM111.471 333V321.096H114.039L114.303 323.352C114.591 322.824 114.943 322.376 115.359 322.008C115.775 321.624 116.263 321.328 116.823 321.12C117.383 320.912 118.007 320.808 118.695 320.808V323.832H117.903C117.391 323.832 116.919 323.896 116.487 324.024C116.055 324.136 115.679 324.328 115.359 324.6C115.039 324.872 114.791 325.248 114.615 325.728C114.439 326.192 114.351 326.768 114.351 327.456V333H111.471ZM126.204 333.288C125.068 333.288 124.036 333.024 123.108 332.496C122.196 331.968 121.476 331.24 120.948 330.312C120.42 329.368 120.156 328.28 120.156 327.048C120.156 325.816 120.42 324.728 120.948 323.784C121.492 322.84 122.22 322.112 123.132 321.6C124.06 321.072 125.092 320.808 126.228 320.808C127.38 320.808 128.412 321.072 129.324 321.6C130.236 322.112 130.956 322.84 131.484 323.784C132.028 324.712 132.3 325.8 132.3 327.048C132.3 328.28 132.028 329.368 131.484 330.312C130.956 331.24 130.228 331.968 129.3 332.496C128.388 333.024 127.356 333.288 126.204 333.288ZM126.204 330.816C126.78 330.816 127.3 330.68 127.764 330.408C128.244 330.12 128.628 329.696 128.916 329.136C129.204 328.576 129.348 327.88 129.348 327.048C129.348 326.216 129.204 325.52 128.916 324.96C128.628 324.4 128.244 323.984 127.764 323.712C127.3 323.424 126.788 323.28 126.228 323.28C125.684 323.28 125.172 323.424 124.692 323.712C124.212 323.984 123.82 324.4 123.516 324.96C123.228 325.52 123.084 326.216 123.084 327.048C123.084 327.864 123.228 328.56 123.516 329.136C123.82 329.696 124.204 330.12 124.668 330.408C125.148 330.68 125.66 330.816 126.204 330.816ZM139.764 333C138.964 333 138.26 332.872 137.652 332.616C137.044 332.36 136.572 331.936 136.236 331.344C135.916 330.752 135.756 329.952 135.756 328.944V323.496H133.716V321.096H135.756L136.092 317.976H138.636V321.096H141.9V323.496H138.636V328.944C138.636 329.552 138.764 329.976 139.02 330.216C139.276 330.44 139.724 330.552 140.364 330.552H141.804V333H139.764ZM149.876 333.288C148.74 333.288 147.708 333.024 146.78 332.496C145.868 331.968 145.148 331.24 144.62 330.312C144.092 329.368 143.828 328.28 143.828 327.048C143.828 325.816 144.092 324.728 144.62 323.784C145.164 322.84 145.892 322.112 146.804 321.6C147.732 321.072 148.764 320.808 149.9 320.808C151.052 320.808 152.084 321.072 152.996 321.6C153.908 322.112 154.628 322.84 155.156 323.784C155.7 324.712 155.972 325.8 155.972 327.048C155.972 328.28 155.7 329.368 155.156 330.312C154.628 331.24 153.9 331.968 152.972 332.496C152.06 333.024 151.028 333.288 149.876 333.288ZM149.876 330.816C150.452 330.816 150.972 330.68 151.436 330.408C151.916 330.12 152.3 329.696 152.588 329.136C152.876 328.576 153.02 327.88 153.02 327.048C153.02 326.216 152.876 325.52 152.588 324.96C152.3 324.4 151.916 323.984 151.436 323.712C150.972 323.424 150.46 323.28 149.9 323.28C149.356 323.28 148.844 323.424 148.364 323.712C147.884 323.984 147.492 324.4 147.188 324.96C146.9 325.52 146.756 326.216 146.756 327.048C146.756 327.864 146.9 328.56 147.188 329.136C147.492 329.696 147.876 330.12 148.34 330.408C148.82 330.68 149.332 330.816 149.876 330.816ZM163.436 333C162.636 333 161.932 332.872 161.324 332.616C160.716 332.36 160.244 331.936 159.908 331.344C159.588 330.752 159.428 329.952 159.428 328.944V323.496H157.388V321.096H159.428L159.764 317.976H162.308V321.096H165.572V323.496H162.308V328.944C162.308 329.552 162.436 329.976 162.692 330.216C162.948 330.44 163.396 330.552 164.036 330.552H165.476V333H163.436ZM169.653 338.28L172.629 331.656H171.909L167.085 321.096H170.205L173.853 329.136L177.261 321.096H180.309L172.701 338.28H169.653ZM182.369 338.28V321.096H184.937L185.249 322.848C185.505 322.496 185.817 322.16 186.185 321.84C186.553 321.52 186.993 321.272 187.505 321.096C188.017 320.904 188.617 320.808 189.305 320.808C190.441 320.808 191.441 321.08 192.305 321.624C193.185 322.168 193.881 322.912 194.393 323.856C194.905 324.8 195.161 325.872 195.161 327.072C195.161 328.272 194.905 329.344 194.393 330.288C193.881 331.216 193.185 331.952 192.305 332.496C191.425 333.024 190.417 333.288 189.281 333.288C188.369 333.288 187.569 333.12 186.881 332.784C186.209 332.432 185.665 331.936 185.249 331.296V338.28H182.369ZM188.705 330.792C189.393 330.792 190.001 330.632 190.529 330.312C191.073 329.992 191.489 329.552 191.777 328.992C192.081 328.432 192.233 327.784 192.233 327.048C192.233 326.328 192.081 325.688 191.777 325.128C191.489 324.552 191.073 324.104 190.529 323.784C190.001 323.464 189.393 323.304 188.705 323.304C188.017 323.304 187.409 323.464 186.881 323.784C186.353 324.104 185.937 324.544 185.633 325.104C185.345 325.664 185.201 326.312 185.201 327.048C185.201 327.784 185.345 328.432 185.633 328.992C185.937 329.552 186.353 329.992 186.881 330.312C187.409 330.632 188.017 330.792 188.705 330.792ZM203.62 333.288C202.42 333.288 201.356 333.032 200.428 332.52C199.516 331.992 198.796 331.272 198.268 330.36C197.756 329.432 197.5 328.352 197.5 327.12C197.5 325.872 197.756 324.776 198.268 323.832C198.78 322.888 199.492 322.152 200.404 321.624C201.332 321.08 202.404 320.808 203.62 320.808C204.804 320.808 205.836 321.072 206.716 321.6C207.596 322.112 208.284 322.8 208.78 323.664C209.276 324.528 209.524 325.504 209.524 326.592C209.524 326.752 209.516 326.928 209.5 327.12C209.5 327.312 209.492 327.52 209.476 327.744H199.564V325.896H206.62C206.572 325.048 206.268 324.384 205.708 323.904C205.148 323.408 204.452 323.16 203.62 323.16C203.028 323.16 202.476 323.296 201.964 323.568C201.468 323.824 201.068 324.216 200.764 324.744C200.476 325.256 200.332 325.912 200.332 326.712V327.408C200.332 328.144 200.476 328.776 200.764 329.304C201.052 329.816 201.444 330.216 201.94 330.504C202.436 330.776 202.988 330.912 203.596 330.912C204.252 330.912 204.804 330.768 205.252 330.48C205.7 330.176 206.036 329.776 206.26 329.28H209.164C208.956 330.048 208.588 330.736 208.06 331.344C207.548 331.936 206.916 332.408 206.164 332.76C205.412 333.112 204.564 333.288 203.62 333.288Z" fill="white"/>
</svg>
