<svg width="1394" height="686" viewBox="0 0 1394 686" fill="none" xmlns="http://www.w3.org/2000/svg">
<g id="Process/Step">
<rect x="-6232" y="-24.1187" width="10049" height="5201.32" rx="19.5" stroke="#8A38F5" stroke-dasharray="10 5"/>
<g id="Step=Deliver, Layout=Wide">
<g id="double-diamond_deliver_wide">
<g id="1st diamond">
<path id="Vector" d="M342.539 684.579C338.507 684.579 334.465 683.04 331.389 679.955L5.12145 353.695C-1.04048 347.533 -1.04048 337.546 5.12145 331.384L331.379 5.12395C334.455 2.04789 338.497 0.5 342.529 0.5" stroke="#C5FA00" stroke-miterlimit="10"/>
<path id="line 1" d="M342.539 0.5L342.539 684.578" stroke="#C5FA00" stroke-miterlimit="10" stroke-dasharray="3 6"/>
<path id="Vector_2" d="M342.542 0.5C346.574 0.5 350.616 2.03801 353.692 5.12388L679.957 331.389C686.119 337.551 686.119 347.538 679.957 353.7L353.692 679.955C350.616 683.031 346.574 684.578 342.542 684.578" stroke="#C5FA00" stroke-miterlimit="10"/>
<path id="Define" d="M159.32 350.381V333.581H164.96C166.912 333.581 168.528 333.925 169.808 334.613C171.088 335.301 172.032 336.277 172.64 337.541C173.264 338.789 173.576 340.277 173.576 342.005C173.576 343.701 173.264 345.181 172.64 346.445C172.032 347.693 171.088 348.661 169.808 349.349C168.544 350.037 166.928 350.381 164.96 350.381H159.32ZM162.2 347.933H164.816C166.272 347.933 167.424 347.701 168.272 347.237C169.12 346.757 169.72 346.077 170.072 345.197C170.44 344.301 170.624 343.237 170.624 342.005C170.624 340.757 170.44 339.693 170.072 338.813C169.72 337.917 169.12 337.229 168.272 336.749C167.424 336.253 166.272 336.005 164.816 336.005H162.2V347.933ZM181.952 350.669C180.752 350.669 179.688 350.413 178.76 349.901C177.848 349.373 177.128 348.653 176.6 347.741C176.088 346.813 175.832 345.733 175.832 344.501C175.832 343.253 176.088 342.157 176.6 341.213C177.112 340.269 177.824 339.533 178.736 339.005C179.664 338.461 180.736 338.189 181.952 338.189C183.136 338.189 184.168 338.453 185.048 338.981C185.928 339.493 186.616 340.181 187.112 341.045C187.608 341.909 187.856 342.885 187.856 343.973C187.856 344.133 187.848 344.309 187.832 344.501C187.832 344.693 187.824 344.901 187.808 345.125H177.896V343.277H184.952C184.904 342.429 184.6 341.765 184.04 341.285C183.48 340.789 182.784 340.541 181.952 340.541C181.36 340.541 180.808 340.677 180.296 340.949C179.8 341.205 179.4 341.597 179.096 342.125C178.808 342.637 178.664 343.293 178.664 344.093V344.789C178.664 345.525 178.808 346.157 179.096 346.685C179.384 347.197 179.776 347.597 180.272 347.885C180.768 348.157 181.32 348.293 181.928 348.293C182.584 348.293 183.136 348.149 183.584 347.861C184.032 347.557 184.368 347.157 184.592 346.661H187.496C187.288 347.429 186.92 348.117 186.392 348.725C185.88 349.317 185.248 349.789 184.496 350.141C183.744 350.493 182.896 350.669 181.952 350.669ZM191.019 350.381V336.965C191.019 336.037 191.179 335.293 191.499 334.733C191.819 334.157 192.275 333.741 192.867 333.485C193.459 333.229 194.155 333.101 194.955 333.101H196.251V335.549H195.411C194.867 335.549 194.475 335.661 194.235 335.885C194.011 336.093 193.899 336.461 193.899 336.989V350.381H191.019ZM189.363 340.877V338.477H196.539V340.877H189.363ZM199.118 350.381V338.477H201.998V350.381H199.118ZM200.582 336.485C200.038 336.485 199.598 336.325 199.262 336.005C198.926 335.669 198.758 335.261 198.758 334.781C198.758 334.285 198.926 333.885 199.262 333.581C199.598 333.261 200.038 333.101 200.582 333.101C201.11 333.101 201.542 333.261 201.878 333.581C202.23 333.885 202.406 334.285 202.406 334.781C202.406 335.261 202.23 335.669 201.878 336.005C201.542 336.325 201.11 336.485 200.582 336.485ZM205.279 350.381V338.477H207.823L208.039 340.517C208.423 339.813 208.959 339.253 209.647 338.837C210.351 338.405 211.167 338.189 212.095 338.189C213.087 338.189 213.927 338.397 214.615 338.813C215.303 339.213 215.831 339.821 216.199 340.637C216.567 341.437 216.751 342.429 216.751 343.613V350.381H213.895V343.901C213.895 342.845 213.671 342.037 213.223 341.477C212.791 340.901 212.119 340.613 211.207 340.613C210.615 340.613 210.087 340.757 209.623 341.045C209.175 341.333 208.815 341.749 208.543 342.293C208.287 342.821 208.159 343.469 208.159 344.237V350.381H205.279ZM225.405 350.669C224.205 350.669 223.141 350.413 222.213 349.901C221.301 349.373 220.581 348.653 220.053 347.741C219.541 346.813 219.285 345.733 219.285 344.501C219.285 343.253 219.541 342.157 220.053 341.213C220.565 340.269 221.277 339.533 222.189 339.005C223.117 338.461 224.189 338.189 225.405 338.189C226.589 338.189 227.621 338.453 228.501 338.981C229.381 339.493 230.069 340.181 230.565 341.045C231.061 341.909 231.309 342.885 231.309 343.973C231.309 344.133 231.301 344.309 231.285 344.501C231.285 344.693 231.277 344.901 231.261 345.125H221.349V343.277H228.405C228.357 342.429 228.053 341.765 227.493 341.285C226.933 340.789 226.237 340.541 225.405 340.541C224.813 340.541 224.261 340.677 223.749 340.949C223.253 341.205 222.853 341.597 222.549 342.125C222.261 342.637 222.117 343.293 222.117 344.093V344.789C222.117 345.525 222.261 346.157 222.549 346.685C222.837 347.197 223.229 347.597 223.725 347.885C224.221 348.157 224.773 348.293 225.381 348.293C226.037 348.293 226.589 348.149 227.037 347.861C227.485 347.557 227.821 347.157 228.045 346.661H230.949C230.741 347.429 230.373 348.117 229.845 348.725C229.333 349.317 228.701 349.789 227.949 350.141C227.197 350.493 226.349 350.669 225.405 350.669Z" fill="white"/>
<path id="Design" d="M454.469 351.207V334.407H460.109C462.061 334.407 463.677 334.751 464.957 335.439C466.237 336.127 467.181 337.103 467.789 338.367C468.413 339.615 468.725 341.103 468.725 342.831C468.725 344.527 468.413 346.007 467.789 347.271C467.181 348.519 466.237 349.487 464.957 350.175C463.693 350.863 462.077 351.207 460.109 351.207H454.469ZM457.349 348.759H459.965C461.421 348.759 462.573 348.527 463.421 348.063C464.269 347.583 464.869 346.903 465.221 346.023C465.589 345.127 465.773 344.063 465.773 342.831C465.773 341.583 465.589 340.519 465.221 339.639C464.869 338.743 464.269 338.055 463.421 337.575C462.573 337.079 461.421 336.831 459.965 336.831H457.349V348.759ZM477.101 351.495C475.901 351.495 474.837 351.239 473.909 350.727C472.997 350.199 472.277 349.479 471.749 348.567C471.237 347.639 470.981 346.559 470.981 345.327C470.981 344.079 471.237 342.983 471.749 342.039C472.261 341.095 472.973 340.359 473.885 339.831C474.813 339.287 475.885 339.015 477.101 339.015C478.285 339.015 479.317 339.279 480.197 339.807C481.077 340.319 481.765 341.007 482.261 341.871C482.757 342.735 483.005 343.711 483.005 344.799C483.005 344.959 482.997 345.135 482.981 345.327C482.981 345.519 482.973 345.727 482.957 345.951H473.045V344.103H480.101C480.053 343.255 479.749 342.591 479.189 342.111C478.629 341.615 477.933 341.367 477.101 341.367C476.509 341.367 475.957 341.503 475.445 341.775C474.949 342.031 474.549 342.423 474.245 342.951C473.957 343.463 473.813 344.119 473.813 344.919V345.615C473.813 346.351 473.957 346.983 474.245 347.511C474.533 348.023 474.925 348.423 475.421 348.711C475.917 348.983 476.469 349.119 477.077 349.119C477.733 349.119 478.285 348.975 478.733 348.687C479.181 348.383 479.517 347.983 479.741 347.487H482.645C482.437 348.255 482.069 348.943 481.541 349.551C481.029 350.143 480.397 350.615 479.645 350.967C478.893 351.319 478.045 351.495 477.101 351.495ZM490.463 351.495C489.439 351.495 488.527 351.327 487.727 350.991C486.927 350.639 486.287 350.159 485.807 349.551C485.343 348.943 485.063 348.239 484.967 347.439H487.847C487.943 347.775 488.095 348.079 488.303 348.351C488.527 348.623 488.815 348.839 489.167 348.999C489.535 349.159 489.959 349.239 490.439 349.239C490.903 349.239 491.287 349.175 491.591 349.047C491.895 348.903 492.111 348.727 492.239 348.519C492.383 348.295 492.455 348.063 492.455 347.823C492.455 347.439 492.351 347.151 492.143 346.959C491.951 346.767 491.655 346.615 491.255 346.503C490.855 346.375 490.383 346.255 489.839 346.143C489.343 346.031 488.831 345.895 488.303 345.735C487.775 345.575 487.295 345.375 486.863 345.135C486.431 344.879 486.079 344.559 485.807 344.175C485.551 343.775 485.423 343.295 485.423 342.735C485.423 342.031 485.607 341.399 485.975 340.839C486.343 340.263 486.879 339.815 487.583 339.495C488.287 339.175 489.135 339.015 490.127 339.015C491.503 339.015 492.607 339.343 493.439 339.999C494.287 340.639 494.783 341.543 494.927 342.711H492.191C492.111 342.263 491.887 341.911 491.519 341.655C491.167 341.399 490.695 341.271 490.103 341.271C489.495 341.271 489.031 341.391 488.711 341.631C488.391 341.855 488.231 342.151 488.231 342.519C488.231 342.759 488.335 342.975 488.543 343.167C488.767 343.359 489.071 343.519 489.455 343.647C489.839 343.775 490.287 343.903 490.799 344.031C491.631 344.207 492.391 344.415 493.079 344.655C493.767 344.895 494.319 345.239 494.735 345.687C495.151 346.135 495.359 346.783 495.359 347.631C495.375 348.383 495.183 349.055 494.783 349.647C494.383 350.223 493.815 350.679 493.079 351.015C492.343 351.335 491.471 351.495 490.463 351.495ZM498.204 351.207V339.303H501.084V351.207H498.204ZM499.668 337.311C499.124 337.311 498.684 337.151 498.348 336.831C498.012 336.495 497.844 336.087 497.844 335.607C497.844 335.111 498.012 334.711 498.348 334.407C498.684 334.087 499.124 333.927 499.668 333.927C500.196 333.927 500.628 334.087 500.964 334.407C501.316 334.711 501.492 335.111 501.492 335.607C501.492 336.087 501.316 336.495 500.964 336.831C500.628 337.151 500.196 337.311 499.668 337.311ZM509.429 356.775C508.309 356.775 507.325 356.631 506.477 356.343C505.629 356.071 504.965 355.647 504.485 355.071C504.021 354.511 503.789 353.807 503.789 352.959C503.789 352.479 503.909 351.999 504.149 351.519C504.405 351.055 504.781 350.623 505.277 350.223C505.789 349.823 506.437 349.471 507.221 349.167L508.445 350.535C507.709 350.807 507.189 351.135 506.885 351.519C506.581 351.903 506.429 352.295 506.429 352.695C506.429 353.095 506.557 353.431 506.813 353.703C507.085 353.991 507.445 354.207 507.893 354.351C508.357 354.495 508.869 354.567 509.429 354.567C509.973 354.567 510.445 354.487 510.845 354.327C511.261 354.183 511.581 353.975 511.805 353.703C512.029 353.431 512.141 353.103 512.141 352.719C512.141 352.271 511.973 351.895 511.637 351.591C511.317 351.287 510.677 351.103 509.717 351.039C508.869 350.975 508.125 350.887 507.485 350.775C506.861 350.663 506.317 350.527 505.853 350.367C505.405 350.191 505.021 350.007 504.701 349.815C504.397 349.607 504.133 349.399 503.909 349.191V348.639L506.405 345.999L508.517 346.695L505.733 349.455L506.477 348.111C506.653 348.223 506.821 348.327 506.981 348.423C507.141 348.503 507.349 348.583 507.605 348.663C507.877 348.727 508.221 348.791 508.637 348.855C509.069 348.919 509.621 348.975 510.293 349.023C511.349 349.119 512.213 349.319 512.885 349.623C513.557 349.927 514.045 350.335 514.349 350.847C514.669 351.343 514.829 351.943 514.829 352.647C514.829 353.351 514.629 354.015 514.229 354.639C513.845 355.263 513.253 355.775 512.453 356.175C511.669 356.575 510.661 356.775 509.429 356.775ZM509.429 347.631C508.421 347.631 507.557 347.439 506.837 347.055C506.117 346.655 505.565 346.135 505.181 345.495C504.797 344.839 504.605 344.111 504.605 343.311C504.605 342.511 504.797 341.791 505.181 341.151C505.565 340.511 506.117 339.999 506.837 339.615C507.557 339.215 508.421 339.015 509.429 339.015C510.437 339.015 511.301 339.215 512.021 339.615C512.741 339.999 513.293 340.511 513.677 341.151C514.061 341.791 514.253 342.511 514.253 343.311C514.253 344.111 514.061 344.839 513.677 345.495C513.293 346.135 512.741 346.655 512.021 347.055C511.301 347.439 510.437 347.631 509.429 347.631ZM509.429 345.399C510.101 345.399 510.645 345.223 511.061 344.871C511.493 344.503 511.709 343.991 511.709 343.335C511.709 342.679 511.493 342.175 511.061 341.823C510.645 341.455 510.101 341.271 509.429 341.271C508.741 341.271 508.181 341.455 507.749 341.823C507.333 342.175 507.125 342.679 507.125 343.335C507.125 343.991 507.333 344.503 507.749 344.871C508.181 345.223 508.741 345.399 509.429 345.399ZM511.373 341.415L510.821 339.303H515.789V341.103L511.373 341.415ZM518.357 351.207V339.303H520.901L521.117 341.343C521.501 340.639 522.037 340.079 522.725 339.663C523.429 339.231 524.245 339.015 525.173 339.015C526.165 339.015 527.005 339.223 527.693 339.639C528.381 340.039 528.909 340.647 529.277 341.463C529.645 342.263 529.829 343.255 529.829 344.439V351.207H526.973V344.727C526.973 343.671 526.749 342.863 526.301 342.303C525.869 341.727 525.197 341.439 524.285 341.439C523.693 341.439 523.165 341.583 522.701 341.871C522.253 342.159 521.893 342.575 521.621 343.119C521.365 343.647 521.237 344.295 521.237 345.063V351.207H518.357Z" fill="white"/>
</g>
<g id="2nd diamond">
<path id="Vector_3" d="M1050.43 684.207C1046.4 684.207 1042.36 682.669 1039.29 679.585L713.197 353.503C707.038 347.344 707.038 337.362 713.197 331.204L1039.28 5.12144C1042.35 2.04705 1046.39 0.5 1050.42 0.5" stroke="#C5FA00" stroke-miterlimit="10"/>
<path id="line 1_2" d="M1050.62 0.5V677.886" stroke="#C5FA00" stroke-miterlimit="10" stroke-dasharray="3 6"/>
<g id="Vector_4">
<path d="M1050.62 0.5C1054.65 0.5 1058.69 2.03801 1061.77 5.12388L1388.04 331.389C1394.2 337.551 1394.2 347.538 1388.04 353.7L1061.77 679.955C1058.69 683.031 1054.65 684.578 1050.62 684.578" fill="#C5FA00"/>
<path d="M1050.62 0.5C1054.65 0.5 1058.69 2.03801 1061.77 5.12388L1388.04 331.389C1394.2 337.551 1394.2 347.538 1388.04 353.7L1061.77 679.955C1058.69 683.031 1054.65 684.578 1050.62 684.578" stroke="#C5FA00" stroke-miterlimit="10"/>
</g>
<path id="Develop" d="M848.363 350.381V333.581H854.003C855.955 333.581 857.571 333.925 858.851 334.613C860.131 335.301 861.075 336.277 861.683 337.541C862.307 338.789 862.619 340.277 862.619 342.005C862.619 343.701 862.307 345.181 861.683 346.445C861.075 347.693 860.131 348.661 858.851 349.349C857.587 350.037 855.971 350.381 854.003 350.381H848.363ZM851.243 347.933H853.859C855.315 347.933 856.467 347.701 857.315 347.237C858.163 346.757 858.763 346.077 859.115 345.197C859.483 344.301 859.667 343.237 859.667 342.005C859.667 340.757 859.483 339.693 859.115 338.813C858.763 337.917 858.163 337.229 857.315 336.749C856.467 336.253 855.315 336.005 853.859 336.005H851.243V347.933ZM870.995 350.669C869.795 350.669 868.731 350.413 867.803 349.901C866.891 349.373 866.171 348.653 865.643 347.741C865.131 346.813 864.875 345.733 864.875 344.501C864.875 343.253 865.131 342.157 865.643 341.213C866.155 340.269 866.867 339.533 867.779 339.005C868.707 338.461 869.779 338.189 870.995 338.189C872.179 338.189 873.211 338.453 874.091 338.981C874.971 339.493 875.659 340.181 876.155 341.045C876.651 341.909 876.899 342.885 876.899 343.973C876.899 344.133 876.891 344.309 876.875 344.501C876.875 344.693 876.867 344.901 876.851 345.125H866.939V343.277H873.995C873.947 342.429 873.643 341.765 873.083 341.285C872.523 340.789 871.827 340.541 870.995 340.541C870.403 340.541 869.851 340.677 869.339 340.949C868.843 341.205 868.443 341.597 868.139 342.125C867.851 342.637 867.707 343.293 867.707 344.093V344.789C867.707 345.525 867.851 346.157 868.139 346.685C868.427 347.197 868.819 347.597 869.315 347.885C869.811 348.157 870.363 348.293 870.971 348.293C871.627 348.293 872.179 348.149 872.627 347.861C873.075 347.557 873.411 347.157 873.635 346.661H876.539C876.331 347.429 875.963 348.117 875.435 348.725C874.923 349.317 874.291 349.789 873.539 350.141C872.787 350.493 871.939 350.669 870.995 350.669ZM882.305 350.381L877.889 338.477H880.913L884.033 347.645L887.177 338.477H890.153L885.761 350.381H882.305ZM897.292 350.669C896.092 350.669 895.028 350.413 894.1 349.901C893.188 349.373 892.468 348.653 891.94 347.741C891.428 346.813 891.172 345.733 891.172 344.501C891.172 343.253 891.428 342.157 891.94 341.213C892.452 340.269 893.164 339.533 894.076 339.005C895.004 338.461 896.076 338.189 897.292 338.189C898.476 338.189 899.508 338.453 900.388 338.981C901.268 339.493 901.956 340.181 902.452 341.045C902.948 341.909 903.196 342.885 903.196 343.973C903.196 344.133 903.188 344.309 903.172 344.501C903.172 344.693 903.164 344.901 903.148 345.125H893.236V343.277H900.292C900.244 342.429 899.94 341.765 899.38 341.285C898.82 340.789 898.124 340.541 897.292 340.541C896.7 340.541 896.148 340.677 895.636 340.949C895.14 341.205 894.74 341.597 894.436 342.125C894.148 342.637 894.004 343.293 894.004 344.093V344.789C894.004 345.525 894.148 346.157 894.436 346.685C894.724 347.197 895.116 347.597 895.612 347.885C896.108 348.157 896.66 348.293 897.268 348.293C897.924 348.293 898.476 348.149 898.924 347.861C899.372 347.557 899.708 347.157 899.932 346.661H902.836C902.628 347.429 902.26 348.117 901.732 348.725C901.22 349.317 900.588 349.789 899.836 350.141C899.084 350.493 898.236 350.669 897.292 350.669ZM905.807 350.381V333.101H908.687V350.381H905.807ZM917.494 350.669C916.358 350.669 915.326 350.405 914.398 349.877C913.486 349.349 912.766 348.621 912.238 347.693C911.71 346.749 911.446 345.661 911.446 344.429C911.446 343.197 911.71 342.109 912.238 341.165C912.782 340.221 913.51 339.493 914.422 338.981C915.35 338.453 916.382 338.189 917.518 338.189C918.67 338.189 919.702 338.453 920.614 338.981C921.526 339.493 922.246 340.221 922.774 341.165C923.318 342.093 923.59 343.181 923.59 344.429C923.59 345.661 923.318 346.749 922.774 347.693C922.246 348.621 921.518 349.349 920.59 349.877C919.678 350.405 918.646 350.669 917.494 350.669ZM917.494 348.197C918.07 348.197 918.59 348.061 919.054 347.789C919.534 347.501 919.918 347.077 920.206 346.517C920.494 345.957 920.638 345.261 920.638 344.429C920.638 343.597 920.494 342.901 920.206 342.341C919.918 341.781 919.534 341.365 919.054 341.093C918.59 340.805 918.078 340.661 917.518 340.661C916.974 340.661 916.462 340.805 915.982 341.093C915.502 341.365 915.11 341.781 914.806 342.341C914.518 342.901 914.374 343.597 914.374 344.429C914.374 345.245 914.518 345.941 914.806 346.517C915.11 347.077 915.494 347.501 915.958 347.789C916.438 348.061 916.95 348.197 917.494 348.197ZM926.338 355.661V338.477H928.906L929.218 340.229C929.474 339.877 929.786 339.541 930.154 339.221C930.522 338.901 930.962 338.653 931.474 338.477C931.986 338.285 932.586 338.189 933.274 338.189C934.41 338.189 935.41 338.461 936.274 339.005C937.154 339.549 937.85 340.293 938.362 341.237C938.874 342.181 939.13 343.253 939.13 344.453C939.13 345.653 938.874 346.725 938.362 347.669C937.85 348.597 937.154 349.333 936.274 349.877C935.394 350.405 934.386 350.669 933.25 350.669C932.338 350.669 931.538 350.501 930.85 350.165C930.178 349.813 929.634 349.317 929.218 348.677V355.661H926.338ZM932.674 348.173C933.362 348.173 933.97 348.013 934.498 347.693C935.042 347.373 935.458 346.933 935.746 346.373C936.05 345.813 936.202 345.165 936.202 344.429C936.202 343.709 936.05 343.069 935.746 342.509C935.458 341.933 935.042 341.485 934.498 341.165C933.97 340.845 933.362 340.685 932.674 340.685C931.986 340.685 931.378 340.845 930.85 341.165C930.322 341.485 929.906 341.925 929.602 342.485C929.314 343.045 929.17 343.693 929.17 344.429C929.17 345.165 929.314 345.813 929.602 346.373C929.906 346.933 930.322 347.373 930.85 347.693C931.378 348.013 931.986 348.173 932.674 348.173Z" fill="white"/>
<path id="Deliver" d="M1162.32 350.381V333.581H1167.96C1169.92 333.581 1171.53 333.925 1172.81 334.613C1174.09 335.301 1175.04 336.277 1175.64 337.541C1176.27 338.789 1176.58 340.277 1176.58 342.005C1176.58 343.701 1176.27 345.181 1175.64 346.445C1175.04 347.693 1174.09 348.661 1172.81 349.349C1171.55 350.037 1169.93 350.381 1167.96 350.381H1162.32ZM1165.2 347.933H1167.82C1169.28 347.933 1170.43 347.701 1171.28 347.237C1172.12 346.757 1172.72 346.077 1173.08 345.197C1173.44 344.301 1173.63 343.237 1173.63 342.005C1173.63 340.757 1173.44 339.693 1173.08 338.813C1172.72 337.917 1172.12 337.229 1171.28 336.749C1170.43 336.253 1169.28 336.005 1167.82 336.005H1165.2V347.933ZM1184.96 350.669C1183.76 350.669 1182.69 350.413 1181.76 349.901C1180.85 349.373 1180.13 348.653 1179.6 347.741C1179.09 346.813 1178.84 345.733 1178.84 344.501C1178.84 343.253 1179.09 342.157 1179.6 341.213C1180.12 340.269 1180.83 339.533 1181.74 339.005C1182.67 338.461 1183.74 338.189 1184.96 338.189C1186.14 338.189 1187.17 338.453 1188.05 338.981C1188.93 339.493 1189.62 340.181 1190.12 341.045C1190.61 341.909 1190.86 342.885 1190.86 343.973C1190.86 344.133 1190.85 344.309 1190.84 344.501C1190.84 344.693 1190.83 344.901 1190.81 345.125H1180.9V343.277H1187.96C1187.91 342.429 1187.6 341.765 1187.04 341.285C1186.48 340.789 1185.79 340.541 1184.96 340.541C1184.36 340.541 1183.81 340.677 1183.3 340.949C1182.8 341.205 1182.4 341.597 1182.1 342.125C1181.81 342.637 1181.67 343.293 1181.67 344.093V344.789C1181.67 345.525 1181.81 346.157 1182.1 346.685C1182.39 347.197 1182.78 347.597 1183.28 347.885C1183.77 348.157 1184.32 348.293 1184.93 348.293C1185.59 348.293 1186.14 348.149 1186.59 347.861C1187.04 347.557 1187.37 347.157 1187.6 346.661H1190.5C1190.29 347.429 1189.92 348.117 1189.4 348.725C1188.88 349.317 1188.25 349.789 1187.5 350.141C1186.75 350.493 1185.9 350.669 1184.96 350.669ZM1193.47 350.381V333.101H1196.35V350.381H1193.47ZM1199.64 350.381V338.477H1202.52V350.381H1199.64ZM1201.1 336.485C1200.56 336.485 1200.12 336.325 1199.78 336.005C1199.45 335.669 1199.28 335.261 1199.28 334.781C1199.28 334.285 1199.45 333.885 1199.78 333.581C1200.12 333.261 1200.56 333.101 1201.1 333.101C1201.63 333.101 1202.06 333.261 1202.4 333.581C1202.75 333.885 1202.93 334.285 1202.93 334.781C1202.93 335.261 1202.75 335.669 1202.4 336.005C1202.06 336.325 1201.63 336.485 1201.1 336.485ZM1209.06 350.381L1204.65 338.477H1207.67L1210.79 347.645L1213.93 338.477H1216.91L1212.52 350.381H1209.06ZM1224.05 350.669C1222.85 350.669 1221.79 350.413 1220.86 349.901C1219.95 349.373 1219.23 348.653 1218.7 347.741C1218.19 346.813 1217.93 345.733 1217.93 344.501C1217.93 343.253 1218.19 342.157 1218.7 341.213C1219.21 340.269 1219.92 339.533 1220.83 339.005C1221.76 338.461 1222.83 338.189 1224.05 338.189C1225.23 338.189 1226.27 338.453 1227.15 338.981C1228.03 339.493 1228.71 340.181 1229.21 341.045C1229.71 341.909 1229.95 342.885 1229.95 343.973C1229.95 344.133 1229.95 344.309 1229.93 344.501C1229.93 344.693 1229.92 344.901 1229.91 345.125H1219.99V343.277H1227.05C1227 342.429 1226.7 341.765 1226.14 341.285C1225.58 340.789 1224.88 340.541 1224.05 340.541C1223.46 340.541 1222.91 340.677 1222.39 340.949C1221.9 341.205 1221.5 341.597 1221.19 342.125C1220.91 342.637 1220.76 343.293 1220.76 344.093V344.789C1220.76 345.525 1220.91 346.157 1221.19 346.685C1221.48 347.197 1221.87 347.597 1222.37 347.885C1222.87 348.157 1223.42 348.293 1224.03 348.293C1224.68 348.293 1225.23 348.149 1225.68 347.861C1226.13 347.557 1226.47 347.157 1226.69 346.661H1229.59C1229.39 347.429 1229.02 348.117 1228.49 348.725C1227.98 349.317 1227.35 349.789 1226.59 350.141C1225.84 350.493 1224.99 350.669 1224.05 350.669ZM1232.56 350.381V338.477H1235.13L1235.4 340.733C1235.68 340.205 1236.04 339.757 1236.45 339.389C1236.87 339.005 1237.36 338.709 1237.92 338.501C1238.48 338.293 1239.1 338.189 1239.79 338.189V341.213H1239C1238.48 341.213 1238.01 341.277 1237.58 341.405C1237.15 341.517 1236.77 341.709 1236.45 341.981C1236.13 342.253 1235.88 342.629 1235.71 343.109C1235.53 343.573 1235.44 344.149 1235.44 344.837V350.381H1232.56Z" fill="#303030"/>
</g>
<g id="Prototype">
<path id="Prototype_2" d="M640.605 28.3813V11.5813H646.701C648.045 11.5813 649.149 11.8053 650.013 12.2533C650.893 12.7013 651.541 13.3093 651.957 14.0773C652.389 14.8453 652.605 15.7173 652.605 16.6933C652.605 17.6213 652.397 18.4693 651.981 19.2373C651.581 20.0053 650.941 20.6213 650.061 21.0853C649.181 21.5493 648.061 21.7813 646.701 21.7813H643.485V28.3813H640.605ZM643.485 19.4293H646.533C647.653 19.4293 648.453 19.1813 648.933 18.6853C649.429 18.1893 649.677 17.5253 649.677 16.6933C649.677 15.8293 649.429 15.1573 648.933 14.6773C648.453 14.1813 647.653 13.9333 646.533 13.9333H643.485V19.4293ZM654.971 28.3813V16.4773H657.539L657.803 18.7333C658.091 18.2053 658.443 17.7573 658.859 17.3893C659.275 17.0053 659.763 16.7093 660.323 16.5013C660.883 16.2933 661.507 16.1893 662.195 16.1893V19.2133H661.403C660.891 19.2133 660.419 19.2773 659.987 19.4053C659.555 19.5173 659.179 19.7093 658.859 19.9813C658.539 20.2533 658.291 20.6293 658.115 21.1093C657.939 21.5733 657.851 22.1493 657.851 22.8373V28.3813H654.971ZM669.704 28.6693C668.568 28.6693 667.536 28.4053 666.608 27.8773C665.696 27.3493 664.976 26.6213 664.448 25.6933C663.92 24.7493 663.656 23.6613 663.656 22.4293C663.656 21.1973 663.92 20.1093 664.448 19.1653C664.992 18.2213 665.72 17.4933 666.632 16.9813C667.56 16.4533 668.592 16.1893 669.728 16.1893C670.88 16.1893 671.912 16.4533 672.824 16.9813C673.736 17.4933 674.456 18.2213 674.984 19.1653C675.528 20.0933 675.8 21.1813 675.8 22.4293C675.8 23.6613 675.528 24.7493 674.984 25.6933C674.456 26.6213 673.728 27.3493 672.8 27.8773C671.888 28.4053 670.856 28.6693 669.704 28.6693ZM669.704 26.1973C670.28 26.1973 670.8 26.0613 671.264 25.7893C671.744 25.5013 672.128 25.0773 672.416 24.5173C672.704 23.9573 672.848 23.2613 672.848 22.4293C672.848 21.5973 672.704 20.9013 672.416 20.3413C672.128 19.7813 671.744 19.3653 671.264 19.0933C670.8 18.8053 670.288 18.6613 669.728 18.6613C669.184 18.6613 668.672 18.8053 668.192 19.0933C667.712 19.3653 667.32 19.7813 667.016 20.3413C666.728 20.9013 666.584 21.5973 666.584 22.4293C666.584 23.2453 666.728 23.9413 667.016 24.5173C667.32 25.0773 667.704 25.5013 668.168 25.7893C668.648 26.0613 669.16 26.1973 669.704 26.1973ZM683.264 28.3813C682.464 28.3813 681.76 28.2533 681.152 27.9973C680.544 27.7413 680.072 27.3173 679.736 26.7253C679.416 26.1333 679.256 25.3333 679.256 24.3253V18.8773H677.216V16.4773H679.256L679.592 13.3573H682.136V16.4773H685.4V18.8773H682.136V24.3253C682.136 24.9333 682.264 25.3573 682.52 25.5973C682.776 25.8213 683.224 25.9333 683.864 25.9333H685.304V28.3813H683.264ZM693.376 28.6693C692.24 28.6693 691.208 28.4053 690.28 27.8773C689.368 27.3493 688.648 26.6213 688.12 25.6933C687.592 24.7493 687.328 23.6613 687.328 22.4293C687.328 21.1973 687.592 20.1093 688.12 19.1653C688.664 18.2213 689.392 17.4933 690.304 16.9813C691.232 16.4533 692.264 16.1893 693.4 16.1893C694.552 16.1893 695.584 16.4533 696.496 16.9813C697.408 17.4933 698.128 18.2213 698.656 19.1653C699.2 20.0933 699.472 21.1813 699.472 22.4293C699.472 23.6613 699.2 24.7493 698.656 25.6933C698.128 26.6213 697.4 27.3493 696.472 27.8773C695.56 28.4053 694.528 28.6693 693.376 28.6693ZM693.376 26.1973C693.952 26.1973 694.472 26.0613 694.936 25.7893C695.416 25.5013 695.8 25.0773 696.088 24.5173C696.376 23.9573 696.52 23.2613 696.52 22.4293C696.52 21.5973 696.376 20.9013 696.088 20.3413C695.8 19.7813 695.416 19.3653 694.936 19.0933C694.472 18.8053 693.96 18.6613 693.4 18.6613C692.856 18.6613 692.344 18.8053 691.864 19.0933C691.384 19.3653 690.992 19.7813 690.688 20.3413C690.4 20.9013 690.256 21.5973 690.256 22.4293C690.256 23.2453 690.4 23.9413 690.688 24.5173C690.992 25.0773 691.376 25.5013 691.84 25.7893C692.32 26.0613 692.832 26.1973 693.376 26.1973ZM706.936 28.3813C706.136 28.3813 705.432 28.2533 704.824 27.9973C704.216 27.7413 703.744 27.3173 703.408 26.7253C703.088 26.1333 702.928 25.3333 702.928 24.3253V18.8773H700.888V16.4773H702.928L703.264 13.3573H705.808V16.4773H709.072V18.8773H705.808V24.3253C705.808 24.9333 705.936 25.3573 706.192 25.5973C706.448 25.8213 706.896 25.9333 707.536 25.9333H708.976V28.3813H706.936ZM713.153 33.6613L716.129 27.0373H715.409L710.585 16.4773H713.705L717.353 24.5173L720.761 16.4773H723.809L716.201 33.6613H713.153ZM725.869 33.6613V16.4773H728.437L728.749 18.2293C729.005 17.8773 729.317 17.5413 729.685 17.2213C730.053 16.9013 730.493 16.6533 731.005 16.4773C731.517 16.2853 732.117 16.1893 732.805 16.1893C733.941 16.1893 734.941 16.4613 735.805 17.0053C736.685 17.5493 737.381 18.2933 737.893 19.2373C738.405 20.1813 738.661 21.2533 738.661 22.4533C738.661 23.6533 738.405 24.7253 737.893 25.6693C737.381 26.5973 736.685 27.3333 735.805 27.8773C734.925 28.4053 733.917 28.6693 732.781 28.6693C731.869 28.6693 731.069 28.5013 730.381 28.1653C729.709 27.8133 729.165 27.3173 728.749 26.6773V33.6613H725.869ZM732.205 26.1733C732.893 26.1733 733.501 26.0133 734.029 25.6933C734.573 25.3733 734.989 24.9333 735.277 24.3733C735.581 23.8133 735.733 23.1653 735.733 22.4293C735.733 21.7093 735.581 21.0693 735.277 20.5093C734.989 19.9333 734.573 19.4853 734.029 19.1653C733.501 18.8453 732.893 18.6853 732.205 18.6853C731.517 18.6853 730.909 18.8453 730.381 19.1653C729.853 19.4853 729.437 19.9253 729.133 20.4853C728.845 21.0453 728.701 21.6933 728.701 22.4293C728.701 23.1653 728.845 23.8133 729.133 24.3733C729.437 24.9333 729.853 25.3733 730.381 25.6933C730.909 26.0133 731.517 26.1733 732.205 26.1733ZM747.12 28.6693C745.92 28.6693 744.856 28.4133 743.928 27.9013C743.016 27.3733 742.296 26.6533 741.768 25.7413C741.256 24.8133 741 23.7333 741 22.5013C741 21.2533 741.256 20.1573 741.768 19.2133C742.28 18.2693 742.992 17.5333 743.904 17.0053C744.832 16.4613 745.904 16.1893 747.12 16.1893C748.304 16.1893 749.336 16.4533 750.216 16.9813C751.096 17.4933 751.784 18.1813 752.28 19.0453C752.776 19.9093 753.024 20.8853 753.024 21.9733C753.024 22.1333 753.016 22.3093 753 22.5013C753 22.6933 752.992 22.9013 752.976 23.1253H743.064V21.2773H750.12C750.072 20.4293 749.768 19.7653 749.208 19.2853C748.648 18.7893 747.952 18.5413 747.12 18.5413C746.528 18.5413 745.976 18.6773 745.464 18.9493C744.968 19.2053 744.568 19.5973 744.264 20.1253C743.976 20.6373 743.832 21.2933 743.832 22.0933V22.7893C743.832 23.5253 743.976 24.1573 744.264 24.6853C744.552 25.1973 744.944 25.5973 745.44 25.8853C745.936 26.1573 746.488 26.2933 747.096 26.2933C747.752 26.2933 748.304 26.1493 748.752 25.8613C749.2 25.5573 749.536 25.1573 749.76 24.6613H752.664C752.456 25.4293 752.088 26.1173 751.56 26.7253C751.048 27.3173 750.416 27.7893 749.664 28.1413C748.912 28.4933 748.064 28.6693 747.12 28.6693Z" fill="white"/>
<path id="arrow" d="M697 64.1545C697 63.8784 696.776 63.6545 696.5 63.6545C696.224 63.6545 696 63.8784 696 64.1545L696.5 64.1545L697 64.1545ZM696.146 259.507C696.342 259.702 696.658 259.702 696.854 259.507L700.036 256.325C700.231 256.129 700.231 255.813 700.036 255.618C699.84 255.422 699.524 255.422 699.328 255.618L696.5 258.446L693.672 255.618C693.476 255.422 693.16 255.422 692.964 255.618C692.769 255.813 692.769 256.129 692.964 256.325L696.146 259.507ZM696.5 64.1545L696 64.1545L696 65.6302L696.5 65.6302L697 65.6302L697 64.1545L696.5 64.1545ZM696.5 71.5425L696 71.5425L696 74.4937L696.5 74.4937L697 74.4937L697 71.5425L696.5 71.5425ZM696.5 80.4061L696 80.4061L696 83.3573L696.5 83.3573L697 83.3573L697 80.4061L696.5 80.4061ZM696.5 89.2696L696 89.2696L696 92.2209L696.5 92.2209L697 92.2209L697 89.2696L696.5 89.2696ZM696.5 98.1332L696 98.1332L696 101.084L696.5 101.084L697 101.084L697 98.1332L696.5 98.1332ZM696.5 106.997L696 106.997L696 109.948L696.5 109.948L697 109.948L697 106.997L696.5 106.997ZM696.5 115.86L696 115.86L696 118.812L696.5 118.812L697 118.812L697 115.86L696.5 115.86ZM696.5 124.724L696 124.724L696 127.675L696.5 127.675L697 127.675L697 124.724L696.5 124.724ZM696.5 133.588L696 133.588L696 136.539L696.5 136.539L697 136.539L697 133.588L696.5 133.588ZM696.5 142.451L696 142.451L696 145.402L696.5 145.402L697 145.402L697 142.451L696.5 142.451ZM696.5 151.315L696 151.315L696 154.266L696.5 154.266L697 154.266L697 151.315L696.5 151.315ZM696.5 160.178L696 160.178L696 163.129L696.5 163.129L697 163.129L697 160.178L696.5 160.178ZM696.5 169.042L696 169.042L696 171.993L696.5 171.993L697 171.993L697 169.042L696.5 169.042ZM696.5 177.905L696 177.905L696 180.857L696.5 180.857L697 180.857L697 177.905L696.5 177.905ZM696.5 186.769L696 186.769L696 189.72L696.5 189.72L697 189.72L697 186.769L696.5 186.769ZM696.5 195.633L696 195.633L696 198.584L696.5 198.584L697 198.584L697 195.633L696.5 195.633ZM696.5 204.496L696 204.496L696 207.447L696.5 207.447L697 207.447L697 204.496L696.5 204.496ZM696.5 213.36L696 213.36L696 216.311L696.5 216.311L697 216.311L697 213.36L696.5 213.36ZM696.5 222.223L696 222.223L696 225.174L696.5 225.174L697 225.174L697 222.223L696.5 222.223ZM696.5 231.087L696 231.087L696 234.038L696.5 234.038L697 234.038L697 231.087L696.5 231.087ZM696.5 239.95L696 239.95L696 242.902L696.5 242.902L697 242.902L697 239.95L696.5 239.95ZM696.5 248.814L696 248.814L696 251.765L696.5 251.765L697 251.765L697 248.814L696.5 248.814ZM696.5 257.678L696 257.678L696 259.153L696.5 259.153L697 259.153L697 257.678L696.5 257.678Z" fill="#C5FA00"/>
</g>
</g>
</g>
</g>
</svg>
